<?xml version="1.0" encoding="UTF-8"?>
<!DOCTYPE svg PUBLIC "-//W3C//DTD SVG 1.1//EN" "http://www.w3.org/Graphics/SVG/1.1/DTD/svg11.dtd">
<!-- Creator: CorelDRAW 2021 (64-Bit) -->
<svg xmlns="http://www.w3.org/2000/svg" xml:space="preserve" width="64px" height="64px" version="1.1" style="shape-rendering:geometricPrecision; text-rendering:geometricPrecision; image-rendering:optimizeQuality; fill-rule:evenodd; clip-rule:evenodd"
viewBox="0 0 4.94 4.94"
 xmlns:xlink="http://www.w3.org/1999/xlink"
 xmlns:xodm="http://www.corel.com/coreldraw/odm/2003">
 <defs>
  <style type="text/css">
   <![CDATA[
    .fil0 {fill:#005098}
    .fil1 {fill:#021C33}
   ]]>
  </style>
 </defs>
 <g id="Layer_x0020_1">
  <metadata id="CorelCorpID_0Corel-Layer"/>
  <polygon class="fil0" points="0,0 4.05,0 3.37,1.26 0,1.27 "/>
  <polygon class="fil0" points="4.94,4.94 0.89,4.94 1.57,3.67 4.94,3.67 "/>
  <polygon class="fil0" points="0,1.84 2.38,1.84 1.69,3.1 0,3.1 "/>
  <polygon class="fil0" points="4.94,3.1 2.56,3.1 3.24,1.84 4.94,1.84 "/>
  <polygon class="fil0" points="4.94,1.27 3.86,1.27 4.54,0 4.94,0 "/>
  <polygon class="fil0" points="0,3.67 1.08,3.67 0.39,4.94 0,4.94 "/>
  <rect class="fil1" transform="matrix(1.67591 -0 1.42095 1.33837 3.59238E-05 1.26592)" width="1.06" height="0.43"/>
  <rect class="fil1" transform="matrix(1.67591 -0 1.42095 1.33837 2.55997 3.10149)" width="1.06" height="0.43"/>
  <polygon class="fil1" points="0,3.1 0.47,3.1 1.08,3.67 0,3.67 "/>
  <polygon class="fil1" points="4.94,1.84 4.47,1.84 3.86,1.27 4.94,1.27 "/>
 </g>
</svg>
