<?xml version="1.0" encoding="UTF-8"?>
<!DOCTYPE svg PUBLIC "-//W3C//DTD SVG 1.1//EN" "http://www.w3.org/Graphics/SVG/1.1/DTD/svg11.dtd">
<!-- Creator: CorelDRAW 2021 (64-Bit) -->
<svg xmlns="http://www.w3.org/2000/svg" xml:space="preserve" width="24px" height="24px" version="1.1" style="shape-rendering:geometricPrecision; text-rendering:geometricPrecision; image-rendering:optimizeQuality; fill-rule:evenodd; clip-rule:evenodd"
viewBox="0 0 0.31 0.31"
 xmlns:xlink="http://www.w3.org/1999/xlink"
 xmlns:xodm="http://www.corel.com/coreldraw/odm/2003">
 <defs>
  <style type="text/css">
   <![CDATA[
    .fil0 {fill:#0866FF;fill-rule:nonzero}
    .fil1 {fill:white;fill-rule:nonzero}
   ]]>
  </style>
 </defs>
 <g id="Logo">
  <metadata id="CorelCorpID_0Corel-Layer"/>
  <path class="fil0" d="M0.31 0.16c0,-0.09 -0.07,-0.16 -0.15,-0.16 -0.09,0 -0.16,0.07 -0.16,0.16 0,0.07 0.05,0.13 0.12,0.15l0 -0.11 -0.03 0 0 -0.04 0.03 0 0 -0.02c0,-0.06 0.02,-0.08 0.07,-0.08 0.01,0 0.03,0 0.04,0l0 0.04c-0.01,0 -0.01,0 -0.02,0 -0.03,0 -0.03,0.01 -0.03,0.04l0 0.02 0.05 0 -0.01 0.04 -0.04 0 0 0.11c0.07,-0.01 0.13,-0.07 0.13,-0.15z"/>
  <path class="fil1" d="M0.22 0.2l0.01 -0.04 -0.05 0 0 -0.02c0,-0.03 0,-0.04 0.03,-0.04 0.01,0 0.01,0 0.02,0l0 -0.04c-0.01,0 -0.03,0 -0.04,0 -0.05,0 -0.07,0.02 -0.07,0.08l0 0.02 -0.03 0 0 0.04 0.03 0 0 0.11c0.01,0 0.02,0 0.04,0 0,0 0.01,0 0.02,0l0 -0.11 0.04 0z"/>
 </g>
</svg>
