<svg xmlns="http://www.w3.org/2000/svg" xmlns:xlink="http://www.w3.org/1999/xlink" id="Layer_1" x="0px" y="0px" width="168.37px" height="39.48px" viewBox="0 0 168.37 39.48" style="enable-background:new 0 0 168.37 39.48;" xml:space="preserve"> <style type="text/css"> .st0{fill:#333333;} </style> <g> <path class="st0" d="M69.21,13.26c0,1.75-0.78,3.1-2.4,3.1c1.63,0,2.4,1.32,2.4,3.04v2.24c0,2.95-1.75,4.21-5.19,4.21h-5.21V7.33 h5.21c3.44,0,5.19,1.26,5.19,4.21V13.26z M61.74,15.21h2.29c1.75,0,2.26-0.34,2.26-1.95v-1.72c0-1.6-0.52-1.95-2.26-1.95h-2.29 V15.21z M61.74,23.57h2.29c1.75,0,2.26-0.34,2.26-1.95v-2.21c0-1.6-0.52-1.95-2.26-1.95h-2.29V23.57z"></path> <rect x="74.29" y="7.32" class="st0" width="2.92" height="18.51"></rect> <path class="st0" d="M93.22,11.62H90.3v-0.32c0-1.6-0.52-1.95-2.26-1.95s-2.26,0.34-2.26,1.95v10.58c0,1.6,0.52,1.95,2.26,1.95 s2.26-0.34,2.26-1.95V17.5h-2.26v-2.26h5.19v6.65c0,2.95-1.75,4.21-5.19,4.21c-3.44,0-5.19-1.26-5.19-4.21V11.31 c0-2.95,1.75-4.21,5.19-4.21c3.44,0,5.19,1.26,5.19,4.21L93.22,11.62L93.22,11.62z"></path> <path class="st0" d="M108.75,25.83h-2.92v-8.22c0,0.32-0.72,0.66-2.15,1.03c-1.83,0.46-2.38,0.86-2.38,2.44v4.75h-2.92V11.31 c0-2.95,1.75-4.21,5.21-4.21c3.44,0,5.16,1.26,5.16,4.21V25.83z M101.3,17.41c0-0.37,0.83-0.66,2.21-1 c1.81-0.43,2.32-0.89,2.32-2.47v-2.64c0-1.6-0.48-1.95-2.24-1.95c-1.81,0-2.29,0.34-2.29,1.95V17.41z"></path> <path class="st0" d="M119.72,18.07l-0.17,0.03c-1.75,0.43-2.44,0.8-2.44,1.98v5.76h-2.92V11.28c0-2.95,1.75-4.21,5.21-4.21 c3.44,0,5.19,1.26,5.19,4.21v2.58c0,2.03-0.63,2.92-2.12,3.5l3.18,8.48h-3.01L119.72,18.07z M121.67,13.92v-2.63 c0-1.55-0.4-1.95-2.26-1.95c-1.83,0-2.29,0.34-2.29,1.95v5.79c0-0.4,0.78-0.8,2.35-1.2C121.41,15.35,121.56,15.35,121.67,13.92"></path> <path class="st0" d="M132.76,15.23h5.59v2.26h-5.59v4.13c0,1.6,0.48,1.95,2.29,1.95h4.61v2.26h-4.61c-3.47,0-5.21-1.26-5.21-4.21 V11.56c0-2.98,1.75-4.24,5.21-4.24h4.61v2.26h-4.61c-1.81,0-2.29,0.37-2.29,1.98V15.23z"></path> <path class="st0" d="M153.46,25.83h-2.92V11.31c0-1.6-0.52-1.95-2.26-1.95c-1.81,0-2.29,0.34-2.29,1.95v14.53h-2.92V11.31 c0-2.95,1.78-4.21,5.21-4.21c3.44,0,5.19,1.26,5.19,4.21L153.46,25.83L153.46,25.83z"></path> <path class="st0" d="M168.37,25.83h-2.92v-8.22c0,0.32-0.71,0.66-2.15,1.03c-1.83,0.46-2.38,0.86-2.38,2.44v4.75H158V11.31 c0-2.95,1.75-4.21,5.21-4.21c3.44,0,5.16,1.26,5.16,4.21V25.83z M160.92,17.41c0-0.37,0.83-0.66,2.21-1 c1.81-0.43,2.32-0.89,2.32-2.47v-2.64c0-1.6-0.48-1.95-2.24-1.95c-1.81,0-2.29,0.34-2.29,1.95V17.41z"></path> <g> <path class="st0" d="M60.23,34.14h2.74v1.11h-2.74v4.09H58.8v-6.99c0-1.44,0.85-2.06,2.55-2.06h2.27v1.11h-2.27 c-0.88,0-1.12,0.17-1.12,0.96V34.14z"></path> <path class="st0" d="M68.75,37.42v-7.13h1.43v7.13c0,0.79,0.24,0.96,1.12,0.96c0.85,0,1.11-0.17,1.11-0.96v-7.13h1.43v7.13 c0,1.44-0.85,2.06-2.54,2.06C69.6,39.48,68.75,38.87,68.75,37.42"></path> <path class="st0" d="M79.82,30.29h1.43v6.99c0,0.79,0.25,0.96,1.11,0.96h2.27v1.11h-2.27c-1.68,0-2.54-0.62-2.54-2.06V30.29z"></path> <path class="st0" d="M91.2,34.14h2.74v1.11H91.2v4.09h-1.43v-6.99c0-1.44,0.85-2.06,2.55-2.06h2.27v1.11h-2.27 c-0.88,0-1.12,0.17-1.12,0.96V34.14z"></path> <rect x="99.82" y="30.29" class="st0" width="1.43" height="9.05"></rect> <path class="st0" d="M107.33,30.29h1.43v6.99c0,0.79,0.25,0.96,1.11,0.96h2.27v1.11h-2.27c-1.68,0-2.54-0.62-2.54-2.06V30.29z"></path> <path class="st0" d="M117.28,30.29h1.43v6.99c0,0.79,0.25,0.96,1.11,0.96h2.27v1.11h-2.27c-1.68,0-2.54-0.62-2.54-2.06V30.29z"></path> <path class="st0" d="M135.97,39.34h-1.43v-7.13c0-0.77-0.25-0.93-1.11-0.93c-0.77,0-1.12,0.2-1.12,0.93v7.13h-1.43v-7.13 c0-0.73-0.34-0.93-1.11-0.93c-0.87,0-1.12,0.14-1.12,0.93v7.13h-1.43v-7.13c0-1.36,0.77-2.03,2.31-2.03 c1.31,0,2.06,0.52,2.06,1.19c0-0.67,0.76-1.19,2.06-1.19c1.54,0,2.31,0.67,2.31,2.03L135.97,39.34L135.97,39.34z"></path> <path class="st0" d="M143.37,34.16h2.74v1.11h-2.74v2.02c0,0.79,0.24,0.96,1.12,0.96h2.25v1.11h-2.25c-1.7,0-2.55-0.62-2.55-2.06 v-4.92c0-1.46,0.85-2.07,2.55-2.07h2.25v1.1h-2.25c-0.88,0-1.12,0.18-1.12,0.97V34.16z"></path> <path class="st0" d="M157.26,39.34h-1.43v-7.1c0-0.79-0.25-0.96-1.11-0.96c-0.88,0-1.12,0.17-1.12,0.96v7.1h-1.43v-7.1 c0-1.44,0.87-2.06,2.55-2.06c1.68,0,2.54,0.62,2.54,2.06V39.34z"></path> <polygon class="st0" points="165.94,31.4 165.94,39.34 164.51,39.34 164.51,31.4 162.38,31.4 162.38,30.29 168.06,30.29 168.06,31.4 "></polygon> </g> </g> <g> <path class="st0" d="M51.03,30.6l0-1.59c0-0.66,0-1.33,0-2c-0.01-0.59-0.01-1.17,0-1.76l0-0.23c0.01-1.08,0.02-2.2-0.08-3.3 c-0.36-3.48-2.03-6.82-4.56-9.15c-2.73-2.6-6.6-4.06-10.3-3.91c-3.43,0.05-6.87,1.47-9.44,3.89c-1.83,1.7-3.2,3.85-3.96,6.24 l-0.02,0.08c-0.09,0.31-0.18,0.62-0.26,0.95c-0.19,0.87-0.39,1.89-0.34,2.98c0.2,2.47-1.02,5.04-3.11,6.55 c-1.27,0.93-2.92,1.44-4.63,1.45c-2.28-0.09-4.43-1.17-5.76-2.92c-1.06-1.32-1.63-2.99-1.62-4.71c-0.02-3.42-0.02-6.84-0.02-10.26 c0.01-1.98,0.01-3.97,0-5.94c0.06-1.78-0.69-3.62-2-4.92c-1.17-1.2-2.81-1.93-4.5-2.01L0.02,0L0.01,0.41C0,0.68,0,0.95,0.01,1.21 c0,0.23,0,0.46-0.01,0.71C0.01,2.9,0.01,3.88,0.01,4.86c0,1.16,0,2.33,0.01,3.49c-0.01,2.23-0.01,4.46-0.01,6.68l0,1.98 c0,2.01,0,4.02-0.01,6.03c0,2.34,0.55,4.65,1.58,6.68c1.08,2.13,2.67,3.95,4.6,5.29c2.54,1.78,5.56,2.71,8.55,2.63 c3.92,0,7.87-1.79,10.57-4.79c1.47-1.63,2.58-3.64,3.22-5.85l0.04-0.2c0.2-0.89,0.41-1.82,0.41-2.76l-0.01-0.55 c0-0.71,0-1.45,0.22-2.16c0.65-2.63,2.74-4.78,5.33-5.46c2.1-0.6,4.49-0.19,6.26,1.05c1.51,1.05,2.62,2.62,3.05,4.31l0.08,0.33 c0.02,0.05,0.03,0.11,0.04,0.16l0.02,0.12c0.02,0.12,0.03,0.23,0.05,0.35c0.04,0.29,0.07,0.57,0.08,0.85v7.33 c-0.01,0.85,0.03,1.55,0.23,2.19c0.67,2.55,2.95,4.62,5.51,5.01c0.27,0.06,0.52,0.07,0.73,0.08l0.41,0.02l0.01-0.41 C51.05,35.03,51.04,32.78,51.03,30.6z"></path> <path class="st0" d="M8.14,12.28c0.01,0.69,0.01,1.4,0.01,2.12l0,0.74c-0.01,0.94-0.01,1.91,0.01,2.87l0.02,1.04l0.69-0.77 c1.41-1.56,3.47-2.5,5.52-2.5c0.14,0,0.27,0.01,0.47,0.02c2.3,0.03,4.55,1.25,5.89,3.18l0.49,0.71l0.24-0.83 c0.59-2.08,1.61-4.01,2.94-5.58l0.25-0.3l-0.29-0.27c-2.34-2.15-5.5-3.53-8.67-3.78c-0.8-0.03-1.62-0.03-2.45,0 c-1.68,0.15-3.33,0.59-4.88,1.29l-0.21,0.09l-0.03,0.23c-0.04,0.29-0.03,0.6-0.01,0.87C8.15,11.67,8.16,11.95,8.14,12.28z"></path> <path class="st0" d="M43.23,32.94c-0.35-1.14-0.33-2.37-0.32-3.55c0.01-0.3,0.01-0.6,0.01-0.91v-1.09l-0.72,0.82 c-1.04,1.19-2.48,2.03-4.06,2.36c-2.24,0.5-4.63-0.07-6.41-1.51c-0.61-0.46-1.09-1.08-1.44-1.56L29.8,26.8l-0.23,0.81 c-0.59,2.04-1.62,3.97-2.99,5.58l-0.25,0.29l0.28,0.27c2.55,2.44,6.24,3.9,9.86,3.91c0.07,0,0.15,0,0.22,0 c2.59,0,5.12-0.71,7.32-2.06l0.32-0.2l-0.32-0.63C43.7,34.21,43.38,33.61,43.23,32.94z"></path> </g> </svg>