<?xml version="1.0" encoding="UTF-8"?>
<!DOCTYPE svg PUBLIC "-//W3C//DTD SVG 1.1//EN" "http://www.w3.org/Graphics/SVG/1.1/DTD/svg11.dtd">
<!-- Creator: CorelDRAW 2021 (64-Bit) -->
<svg xmlns="http://www.w3.org/2000/svg" xml:space="preserve" width="154px" height="50px" version="1.1" style="shape-rendering:geometricPrecision; text-rendering:geometricPrecision; image-rendering:optimizeQuality; fill-rule:evenodd; clip-rule:evenodd"
viewBox="0 0 323.72 104.77"
 xmlns:xlink="http://www.w3.org/1999/xlink"
 xmlns:xodm="http://www.corel.com/coreldraw/odm/2003">
 <defs>
  <style type="text/css">
   <![CDATA[
    .fil0 {fill:#005BD9;fill-rule:nonzero}
   ]]>
  </style>
 </defs>
 <g id="Layer_x0020_1">
  <metadata id="CorelCorpID_0Corel-Layer"/>
  <g id="filstar_logo_new.svg">
   <g id="filstar_logo_new">
    <path id="Path_734" class="fil0" d="M38.39 37.28l6.65 0c1.51,0 2.73,1.22 2.73,2.73 0,1.5 1.22,2.72 2.72,2.72l11.83 0c0,0 0,0 0,0 1,0 1.81,-0.81 1.81,-1.81 0,0 0,0 0,-0.01l0 -3.63c0,-3.01 -2.44,-5.46 -5.45,-5.46l-31.2 0c-5.03,0 -9.1,4.08 -9.1,9.1l0 43.65c0,1 0.81,1.82 1.82,1.82l12.73 0c1.01,0 1.82,-0.82 1.82,-1.82l0 -17.35 22.11 0c1,0 1.82,-0.81 1.82,-1.82l0 -7.27c0,-1.01 -0.82,-1.82 -1.82,-1.82l-22.11 0 0 -15.39c0,-2.01 1.63,-3.64 3.64,-3.64l0 0z" data-name="Path 734"/>
    <path id="Path_735" class="fil0" d="M84.74 48.19l-12.73 0c-1.01,0 -1.82,0.82 -1.82,1.82l0 27.28c0,5.02 4.07,9.1 9.1,9.1l5.45 0c1.01,0 1.82,-0.82 1.82,-1.82l0 -34.56c0,0 0,0 0,0 0,-1 -0.81,-1.82 -1.82,-1.82 0,0 0,0 0,0l0 0z" data-name="Path 735"/>
    <path id="Path_736" class="fil0" d="M97.98 31.82c-1,0 -1.82,0.82 -1.82,1.82l0 43.65c0,5.02 4.08,9.1 9.1,9.1l5.45 0c1.01,0 1.83,-0.82 1.83,-1.82l0 -43.65c0,-5.03 -4.08,-9.1 -9.1,-9.1l-5.46 0z" data-name="Path 736"/>
    <path id="Path_737" class="fil0" d="M268.15 84.56c0,1.01 0.82,1.82 1.82,1.82l5.46 0c5.02,0 9.09,-4.07 9.09,-9.09l0 -20c0,-2.01 1.63,-3.64 3.64,-3.64l3.65 0c1.01,0 1.82,0.81 1.82,1.82 0,2.01 1.63,3.63 3.64,3.63l10.91 0.01c1.01,-0.01 1.82,-0.82 1.82,-1.83l0 -3.63c0,-3.02 -2.44,-5.46 -5.46,-5.46l-27.29 0c-5.02,0 -9.1,4.08 -9.1,9.1l0 27.27z" data-name="Path 737"/>
    <path id="Path_738" class="fil0" d="M224 64.56c-5.03,0 -9.1,4.07 -9.1,9.1l0 3.63c0,5.03 4.07,9.1 9.09,9.1l32.74 0c1,0 1.82,-0.81 1.82,-1.82l0 -27.28c0,-5.03 -4.07,-9.1 -9.1,-9.1l-29.09 0c-3.02,0 -5.46,2.44 -5.46,5.45l0 3.64c0,1.01 0.82,1.82 1.82,1.82l10.92 0c2,0 3.63,-1.63 3.63,-3.64 0,-1 0.82,-1.82 1.82,-1.82l5.46 0c2,0 3.63,1.63 3.63,3.64l0 7.28 -18.18 0zm32.73 5.45l-7.27 0c-2.01,0 -3.64,-1.63 -3.64,-3.64l0 -3.63c0,-2.01 1.63,-3.64 3.64,-3.64l7.27 0 0 10.91z" data-name="Path 738"/>
    <path id="Path_739" class="fil0" d="M141.54 37.28l9.65 0c1.51,0 2.73,1.22 2.73,2.73 0,1.5 1.22,2.72 2.72,2.72l11.82 0c1.01,0 1.82,-0.81 1.82,-1.82l0 -3.63c0,-3.01 -2.44,-5.46 -5.45,-5.46l-34.2 0c-5.03,0 -9.1,4.08 -9.1,9.1l0 15.45c0,4.52 3.66,8.19 8.18,8.19l20.57 0c2.01,0 3.63,1.63 3.63,3.63l0 9.1c0,2.01 -1.62,3.64 -3.63,3.64l-10.56 0c0,0 0,0 0,0 -1,0 -1.81,-0.82 -1.81,-1.82 0,0 0,0 0,0l0 -1.26c0,-1.51 -1.22,-2.73 -2.73,-2.73l-11.82 0c0,0 0,0 0,0 -1.01,0 -1.82,0.81 -1.82,1.82 0,0 0,0 0,0l0 3.99c0,3.01 2.44,5.45 5.45,5.45l34.21 0c5.02,0 9.09,-4.07 9.09,-9.09l0 -14.56c0,-5.02 -4.07,-9.1 -9.09,-9.1l-19.66 0c-2.01,0 -3.64,-1.63 -3.64,-3.63l0 -9.09c0,-2.01 1.63,-3.63 3.64,-3.63 0,0 0,0 0,0l0 0z" data-name="Path 739"/>
    <path id="Path_740" class="fil0" d="M206.48 59.11c1.01,-0.01 1.82,-0.82 1.82,-1.83l0 -7.27c0,-1 -0.81,-1.82 -1.82,-1.82l-10.82 0 0 -7.27c0,-5.03 -4.07,-9.1 -9.1,-9.1l-5.46 0c0,0 0,0 0,0 -1,0 -1.81,0.81 -1.81,1.82 0,0 0,0 0,0l0 43.65c0,5.02 4.07,9.1 9.09,9.1l5.56 0 0.04 0 12.51 0c1,0 1.81,-0.82 1.81,-1.82l0 -1.82c0,0 0,0 0,0 0,-1 -0.81,-1.82 -1.81,-1.82 0,0 0,0 -0.01,0l-7.18 0.01c-2.01,-0.01 -3.64,-1.63 -3.64,-3.64l0 -18.2 10.82 0.01z" data-name="Path 740"/>
    <path id="Path_741" class="fil0" d="M86.56 37.28c0,-3.01 -2.44,-5.46 -5.46,-5.46l-9.1 0c-1,0 -1.82,0.82 -1.82,1.82l0 7.28c0,1 0.82,1.82 1.82,1.82l12.73 0c1.01,0 1.82,-0.82 1.82,-1.82l0.01 -3.64z" data-name="Path 741"/>
    <path id="Path_742" class="fil0" d="M247.14 35.51l3.1 0c0.85,0 1.55,-0.7 1.55,-1.55l0 -5.53 4.02 0c3.72,0.04 6.98,5.53 6.98,5.53 0.29,0.45 0.68,0.83 1.15,1.09 0.4,0.28 0.88,0.43 1.37,0.46l3.95 0c0.56,0 0.84,-0.24 0.84,-0.71 -0.01,-0.3 -0.1,-0.59 -0.26,-0.84 -0.16,-0.25 -4.37,-5.18 -4.93,-5.77 -0.5,-0.55 -1.13,-0.97 -1.82,-1.24 4.14,-0.81 6.21,-2.82 6.21,-6.01 0,-0.09 0,-0.19 0,-0.28 0,-2 -0.89,-3.9 -2.42,-5.19 -1.64,-1.32 -3.69,-2.04 -5.8,-2.04 -0.13,0 -0.26,0.01 -0.39,0.01l-13.59 0c-0.01,0 -0.02,0 -0.03,0 -0.4,0 -0.79,0.17 -1.06,0.46 -0.28,0.29 -0.44,0.68 -0.44,1.08 0,0.01 0,0.02 0,0.03l0 18.95c0,0.01 0,0.01 0,0.02 0,0.41 0.16,0.8 0.46,1.07 0.28,0.29 0.67,0.46 1.08,0.46 0.01,0 0.02,0 0.03,0l0 0zm3.53 -17.86l7.02 0c0.05,0 0.09,0 0.13,0 1,0 1.98,0.23 2.86,0.68 0.8,0.42 1.3,1.25 1.3,2.15 0,0.91 -0.5,1.74 -1.3,2.16 -0.88,0.45 -1.86,0.68 -2.85,0.68 -0.05,0 -0.09,0 -0.14,0l-7.02 0 0 -5.67z" data-name="Path 742"/>
    <path id="Path_743" class="fil0" d="M277.88 33.13c2.96,1.88 6.39,2.89 9.89,2.89 3.51,0 6.94,-1.01 9.89,-2.89 2.17,-2.36 3.37,-5.45 3.37,-8.65 0,-3.2 -1.2,-6.29 -3.37,-8.65 -2.95,-1.88 -6.39,-2.88 -9.89,-2.88 -3.5,0 -6.93,1 -9.89,2.88 -2.17,2.36 -3.37,5.44 -3.37,8.65 0,3.2 1.2,6.29 3.37,8.65l0 0zm4.51 -31.2c1.51,-1.25 3.42,-1.93 5.38,-1.93 1.97,0 3.87,0.68 5.38,1.93 1.09,1.54 1.67,3.37 1.67,5.25 0,1.88 -0.58,3.71 -1.67,5.25 -1.51,1.25 -3.42,1.93 -5.38,1.93 -1.96,0 -3.87,-0.68 -5.38,-1.93 -1.09,-1.53 -1.67,-3.37 -1.67,-5.25 0,-1.88 0.58,-3.71 1.67,-5.25l0 0z" data-name="Path 743"/>
    <path id="Path_744" class="fil0" d="M0 40.01l0 60.15c0,2.54 2.06,4.6 4.6,4.6l292.55 0.01c14.67,-0.01 26.57,-11.9 26.57,-26.57l0 -60.16c0,-2.54 -2.07,-4.6 -4.61,-4.6l-10.56 0c-0.9,0 -1.62,0.73 -1.62,1.63l0 1.41c0,0.9 0.72,1.62 1.62,1.62l8.88 0c0.9,0 1.62,0.73 1.62,1.63l0 58.47 0 0c0,12.1 -9.81,21.91 -21.9,21.91l-290.86 0c0,0 0,0 0,0 -0.9,0 -1.63,-0.73 -1.63,-1.63 0,0 0,0 0,0l0 -58.47 0 0c0,-12.1 9.81,-21.91 21.91,-21.91l201.1 0c0.16,-0.01 0.33,-0.01 0.49,-0.01 1.3,0 2.57,0.32 3.71,0.94 0.91,0.76 1.43,1.89 1.43,3.08 0,1.18 -0.52,2.31 -1.43,3.07 -1.14,0.62 -2.41,0.94 -3.71,0.94 -0.16,0 -0.33,0 -0.49,-0.01l-6 0 0 -2.38c0,-0.9 -0.73,-1.63 -1.63,-1.63l-2.96 0c0,0 0,0 0,0 -0.9,0 -1.63,0.73 -1.63,1.63 0,0 0,0 0,0l0 10.23c0,0 0,0.01 0,0.02 0,0.4 0.17,0.79 0.47,1.07 0.28,0.29 0.67,0.45 1.08,0.45 0,0 0.01,0 0.02,0l3.1 0.01c0.85,0 1.54,-0.7 1.54,-1.55l0 -3.19 7.89 0c6.65,0 9.97,-2.55 9.97,-8.67 0,-6.12 -3.32,-8.66 -9.97,-8.66l-202.98 0c-14.67,0 -26.57,11.89 -26.57,26.57l0 0z" data-name="Path 744"/>
   </g>
  </g>
 </g>
</svg>
