<?xml version="1.0" encoding="UTF-8"?>
<!DOCTYPE svg PUBLIC "-//W3C//DTD SVG 1.1//EN" "http://www.w3.org/Graphics/SVG/1.1/DTD/svg11.dtd">
<!-- Creator: CorelDRAW 2021 (64-Bit) -->
<svg xmlns="http://www.w3.org/2000/svg" xml:space="preserve" width="241px" height="50px" version="1.1" style="shape-rendering:geometricPrecision; text-rendering:geometricPrecision; image-rendering:optimizeQuality; fill-rule:evenodd; clip-rule:evenodd"
viewBox="0 0 176.41 36.66"
 xmlns:xlink="http://www.w3.org/1999/xlink"
 xmlns:xodm="http://www.corel.com/coreldraw/odm/2003">
 <defs>
  <style type="text/css">
   <![CDATA[
    .fil0 {fill:#0F0E9F;fill-rule:nonzero}
   ]]>
  </style>
 </defs>
 <g id="Layer_x0020_1">
  <metadata id="CorelCorpID_0Corel-Layer"/>
  <path class="fil0" d="M95.68 0.35c-0.92,0.17 -1.96,0.69 -2.25,1.15 -0.23,0.47 -1.33,1.22 -2.38,1.68 -2.14,0.87 -1.91,-0.17 -3.47,16.27 -0.98,9.78 -1.1,15.57 -0.35,16.03 0.24,0.17 0.87,0 1.33,-0.4 0.58,-0.47 1.1,-2.96 1.57,-8.22 0.4,-4.17 0.92,-8.57 1.16,-9.84l0.4 -2.32 0.46 2.61c0.99,6.02 2.84,9.26 5.21,9.26 1.68,0 6.77,-5.5 9.32,-10.07 1.16,-2.15 2.26,-3.77 2.37,-3.65 0.35,0.29 -2.95,15.4 -4.34,19.91 -0.58,1.97 -0.98,3.7 -0.81,3.88 0.47,0.46 8.45,-6.37 10.42,-8.92 1.97,-2.6 3.36,-8.39 4.05,-17.24l0.35 -4.75 -2.08 -0.87c-1.16,-0.46 -3.01,-0.87 -4.05,-0.87 -1.86,0 -2.15,0.29 -5.04,5.21 -3.7,6.31 -5.38,7.99 -6.66,6.95 -1.21,-1.04 -1.91,-4.11 -2.37,-10.59 -0.23,-3.07 -0.58,-5.56 -0.75,-5.56 -0.18,0.06 -1.1,0.23 -2.09,0.35l0 0z"/>
  <path class="fil0" d="M133.48 0.29c-0.58,0.17 -1.04,0.87 -1.04,1.56 0,0.87 -0.75,1.74 -2.43,2.78 -2.38,1.39 -2.55,1.74 -4.52,7.81 -2.26,7.24 -2.54,7.76 -4.4,7.76 -1.91,0 -2.02,0.58 -0.75,3.47 1.1,2.43 1.1,2.84 0.35,5.79 -1.68,6.19 -1.68,6.37 -0.46,6.37 1.09,0 1.91,-1.33 3.82,-6.54 0.57,-1.51 1.21,-2.84 1.38,-2.95 0.18,-0.12 2.26,-0.41 4.58,-0.58l4.28 -0.41 -0.23 4.63c-0.12,3.53 0,4.69 0.58,4.69 0.4,0 0.98,-0.64 1.21,-1.39 0.29,-0.69 1.45,-1.85 2.55,-2.49 1.56,-0.92 2.03,-1.68 2.31,-3.41 0.24,-1.28 1.05,-3.01 1.91,-3.88 2.49,-2.72 3.19,-7.06 1.05,-6.66 -0.7,0.18 -0.87,-1.21 -0.99,-7.46 -0.06,-4.75 -0.34,-7.88 -0.75,-8.28 -0.75,-0.75 -6.83,-1.27 -8.45,-0.81l0 0zm0.93 13.02c0.4,4.98 0.57,4.81 -4,5.5 -1.79,0.23 -2.66,0.17 -2.54,-0.23 0.11,-0.29 1.38,-3.24 2.83,-6.43 2.9,-6.54 3.01,-6.54 3.71,1.16l0 0z"/>
  <path class="fil0" d="M14.83 3.13c-5.44,3.18 -10.65,8.33 -13.08,12.9 -2.26,4.23 -2.32,5.56 -0.24,8.86 2.61,4.05 5.5,6.31 8.28,6.31 2.2,0 8.68,-2.72 9.49,-4.05 0.76,-1.28 1.16,-0.47 0.93,2.08 -0.17,2.26 0.06,2.89 1.45,4.4 2.08,2.14 4.68,3.59 5.15,2.78 0.17,-0.29 0.75,-3.53 1.33,-7.18 1.1,-7.58 0.98,-7.87 -3.07,-9.03 -2.26,-0.64 -2.72,-0.58 -4.17,0.46 -3.12,2.2 -8.91,4.75 -11.46,5.15 -1.44,0.18 -2.6,0.18 -2.6,-0.05 0,-0.24 0.52,-1.45 1.21,-2.78 1.74,-3.42 6.14,-7.47 10.71,-9.84 5.56,-2.84 7.82,-3.53 9.73,-2.84 2.25,0.93 1.91,-0.23 -1.22,-3.88 -1.56,-1.73 -3.18,-3.58 -3.65,-4.16 -1.79,-2.09 -4.11,-1.85 -8.79,0.87l0 0z"/>
  <path class="fil0" d="M40.41 1.68c-0.35,0.64 -1.27,1.33 -2.08,1.5 -1.05,0.29 -1.86,1.16 -2.55,2.72 -1.16,2.61 -1.04,3.3 0.52,3.3 0.93,0 0.87,0.52 -0.87,5.04 -3.3,8.74 -2.49,13.25 3.07,17.13 5.03,3.47 8.33,3.18 12.27,-1.04 4.34,-4.69 7.58,-12.85 7.58,-18.93 0,-7.23 -2.89,-9.43 -14.01,-10.53 -2.89,-0.29 -3.41,-0.23 -3.93,0.81zm10.48 11.23c3.41,2.31 3.06,4.57 -1.45,9.55 -2.03,2.2 -6.54,5.26 -7.76,5.26 -1.16,0 -0.69,-5.73 1.04,-12.09l1.34 -4.81 2.25 0.29c1.28,0.18 3.3,0.99 4.58,1.8l0 0z"/>
  <path class="fil0" d="M153.68 1.39c-3.82,0.87 -3.59,0.75 -4.11,2.37 -0.29,0.99 -0.12,1.33 1.1,1.62 1.74,0.47 1.74,0.7 0.29,6.83 -0.64,2.67 -1.33,7.93 -1.56,11.81l-0.35 6.95 1.62 1.27c2.14,1.74 3.01,1.62 3.41,-0.46 0.18,-0.99 0.53,-2.49 0.7,-3.42l0.29 -1.74 2.83 2.03c2.9,2.08 9.79,5.44 11.18,5.44 0.46,0 1.27,-0.52 1.85,-1.16 0.52,-0.58 1.91,-1.39 2.95,-1.73 1.1,-0.41 1.97,-0.87 1.97,-1.16 0,-0.23 -1.74,-1.27 -3.82,-2.26 -4.34,-2.02 -10.07,-5.96 -12.62,-8.68l-1.74 -1.79 7.82 0c8.51,0 10.53,-0.53 10.88,-2.9 0.29,-2.02 -1.04,-7.64 -2.09,-8.8 -1.21,-1.33 -6.42,-3.29 -11.63,-4.28 -4.8,-0.92 -4.46,-0.92 -8.97,0.06zm10.77 8.1c1.85,0.46 4.16,1.33 5.2,1.85l1.86 0.93 -2.26 1.04c-2.26,0.99 -11.17,2.66 -11.63,2.14 -0.18,-0.11 0.05,-1.73 0.4,-3.53 0.81,-3.76 0.98,-3.87 6.43,-2.43z"/>
  <path class="fil0" d="M62 1.45c-0.99,0.46 -0.93,4.97 0.06,7.46 0.98,2.32 2.43,3.19 5.26,3.19l2.14 0 -0.34 2.72c-0.18,1.56 -0.75,6.13 -1.22,10.3 -0.52,4.11 -1.04,8.22 -1.21,9.03 -0.41,2.26 1.27,2.66 2.31,0.64 0.46,-0.93 1.45,-1.91 2.2,-2.26 1.04,-0.46 2.03,-2.2 3.88,-6.77 2.49,-6.25 3.01,-9.55 2.2,-12.97l-0.52 -1.85 3.53 0c3.12,0 3.53,-0.12 3.53,-1.1 0,-0.64 -0.23,-1.27 -0.52,-1.45 -0.29,-0.17 -0.7,-1.21 -0.87,-2.37 -0.35,-1.85 -0.64,-2.08 -4.28,-3.24 -3.77,-1.22 -14.53,-2.09 -16.15,-1.33z"/>
 </g>
</svg>
