<?xml version="1.0" encoding="UTF-8"?>
<!DOCTYPE svg PUBLIC "-//W3C//DTD SVG 1.1//EN" "http://www.w3.org/Graphics/SVG/1.1/DTD/svg11.dtd">
<!-- Creator: CorelDRAW 2021 (64-Bit) -->
<svg xmlns="http://www.w3.org/2000/svg" xml:space="preserve" width="281px" height="50px" version="1.1" style="shape-rendering:geometricPrecision; text-rendering:geometricPrecision; image-rendering:optimizeQuality; fill-rule:evenodd; clip-rule:evenodd"
viewBox="0 0 36.83 6.56"
 xmlns:xlink="http://www.w3.org/1999/xlink"
 xmlns:xodm="http://www.corel.com/coreldraw/odm/2003">
 <defs>
  <style type="text/css">
   <![CDATA[
    .str0 {stroke:#1A4379;stroke-width:0.12;stroke-linecap:round;stroke-linejoin:round;stroke-miterlimit:22.9256}
    .fil4 {fill:none;fill-rule:nonzero}
    .fil1 {fill:#021C33}
    .fil0 {fill:#1A4379}
    .fil2 {fill:#1A4379;fill-rule:nonzero}
    .fil3 {fill:#1A4379;fill-rule:nonzero}
   ]]>
  </style>
 </defs>
 <g id="Layer_x0020_1">
  <metadata id="CorelCorpID_0Corel-Layer"/>
  <g id="_2271342895472">
   <path class="fil0" d="M5.38 0l-0.91 1.68 -4.47 0c0,-0.56 0,-1.12 0,-1.68l5.38 0z"/>
   <polygon class="fil0" points="6.56,6.56 1.18,6.56 2.09,4.88 6.56,4.88 "/>
   <polygon class="fil0" points="0,2.44 3.16,2.44 2.25,4.12 0,4.12 "/>
   <polygon class="fil0" points="6.56,4.12 3.4,4.12 4.31,2.44 6.56,2.44 "/>
   <polygon class="fil0" points="6.56,1.68 5.13,1.68 6.04,0 6.56,0 "/>
   <polygon class="fil0" points="0,4.88 1.43,4.88 0.52,6.56 0,6.56 "/>
   <rect class="fil1" transform="matrix(1.67591 -0 1.42095 1.33837 4.77153E-05 1.68144)" width="1.4" height="0.57"/>
   <rect class="fil1" transform="matrix(1.67591 -0 1.42095 1.33837 3.40025 4.11952)" width="1.4" height="0.57"/>
   <polygon class="fil1" points="0,4.12 0.63,4.12 1.43,4.88 0,4.88 "/>
   <polygon class="fil1" points="6.56,2.44 5.93,2.44 5.13,1.68 6.56,1.68 "/>
  </g>
  <g id="_2271342921392">
   <polygon class="fil2" points="9.48,6.24 8.86,4.39 9.22,4.39 9.77,6.07 9.59,6.07 10.16,4.39 10.48,4.39 11.03,6.07 10.86,6.07 11.42,4.39 11.75,4.39 11.14,6.24 10.77,6.24 10.27,4.73 10.36,4.73 9.85,6.24 "/>
   <path id="_1" class="fil2" d="M12.86 6.24l0 -0.28 -0.02 -0.06 0 -0.5c0,-0.1 -0.03,-0.18 -0.08,-0.23 -0.06,-0.05 -0.15,-0.08 -0.27,-0.08 -0.08,0 -0.16,0.01 -0.23,0.04 -0.08,0.02 -0.15,0.06 -0.2,0.1l-0.13 -0.24c0.08,-0.06 0.17,-0.1 0.27,-0.13 0.11,-0.03 0.22,-0.05 0.33,-0.05 0.21,0 0.36,0.05 0.48,0.15 0.11,0.1 0.16,0.25 0.16,0.46l0 0.82 -0.31 0zm-0.44 0.02c-0.11,0 -0.2,-0.01 -0.28,-0.05 -0.08,-0.04 -0.14,-0.09 -0.19,-0.15 -0.04,-0.07 -0.06,-0.14 -0.06,-0.22 0,-0.08 0.02,-0.15 0.06,-0.22 0.03,-0.06 0.1,-0.11 0.18,-0.15 0.09,-0.03 0.2,-0.05 0.35,-0.05l0.41 0 0 0.22 -0.39 0c-0.11,0 -0.19,0.02 -0.23,0.05 -0.04,0.04 -0.05,0.08 -0.05,0.14 0,0.06 0.02,0.1 0.07,0.14 0.04,0.03 0.11,0.05 0.2,0.05 0.08,0 0.15,-0.02 0.21,-0.05 0.07,-0.04 0.11,-0.1 0.14,-0.17l0.06 0.2c-0.03,0.08 -0.09,0.15 -0.17,0.19 -0.08,0.05 -0.19,0.07 -0.31,0.07z"/>
   <path id="_2" class="fil2" d="M13.55 6.24l0 -1.41 0.31 0 0 0.39 -0.03 -0.11c0.04,-0.1 0.1,-0.17 0.2,-0.22 0.09,-0.05 0.2,-0.08 0.34,-0.08l0 0.32c-0.02,0 -0.03,-0.01 -0.04,-0.01 -0.02,0 -0.03,0 -0.04,0 -0.13,0 -0.23,0.04 -0.3,0.11 -0.07,0.07 -0.11,0.18 -0.11,0.33l0 0.68 -0.33 0z"/>
   <path id="_3" class="fil2" d="M15.25 6.26c-0.16,0 -0.3,-0.03 -0.41,-0.09 -0.12,-0.06 -0.21,-0.15 -0.28,-0.26 -0.06,-0.11 -0.09,-0.23 -0.09,-0.37 0,-0.14 0.03,-0.27 0.09,-0.38 0.06,-0.11 0.15,-0.19 0.26,-0.25 0.11,-0.07 0.24,-0.1 0.38,-0.1 0.13,0 0.26,0.03 0.37,0.09 0.1,0.06 0.19,0.15 0.25,0.26 0.06,0.11 0.09,0.24 0.09,0.39 0,0.01 0,0.03 0,0.04 0,0.02 0,0.04 0,0.05l-1.18 0 0 -0.22 1 0 -0.13 0.07c0,-0.08 -0.01,-0.15 -0.05,-0.21 -0.03,-0.06 -0.08,-0.11 -0.14,-0.15 -0.06,-0.03 -0.13,-0.05 -0.21,-0.05 -0.08,0 -0.16,0.02 -0.22,0.05 -0.06,0.04 -0.11,0.09 -0.14,0.15 -0.03,0.06 -0.05,0.14 -0.05,0.22l0 0.05c0,0.09 0.02,0.16 0.06,0.23 0.04,0.06 0.09,0.11 0.16,0.15 0.07,0.03 0.15,0.05 0.25,0.05 0.07,0 0.15,-0.01 0.21,-0.03 0.06,-0.03 0.12,-0.07 0.17,-0.12l0.18 0.2c-0.07,0.08 -0.15,0.13 -0.24,0.17 -0.1,0.04 -0.21,0.06 -0.33,0.06z"/>
   <path id="_4" class="fil2" d="M16.18 6.24l0 -1.96 0.33 0 0 0.93 -0.07 -0.12c0.05,-0.09 0.12,-0.15 0.21,-0.2 0.1,-0.05 0.21,-0.08 0.33,-0.08 0.11,0 0.22,0.03 0.31,0.07 0.08,0.04 0.15,0.11 0.21,0.2 0.05,0.09 0.07,0.21 0.07,0.35l0 0.81 -0.33 0 0 -0.76c0,-0.13 -0.03,-0.22 -0.09,-0.28 -0.06,-0.07 -0.14,-0.1 -0.25,-0.1 -0.07,0 -0.14,0.02 -0.2,0.05 -0.06,0.03 -0.11,0.08 -0.14,0.14 -0.03,0.07 -0.05,0.14 -0.05,0.24l0 0.71 -0.33 0z"/>
   <path id="_5" class="fil2" d="M18.58 6.26c-0.14,0 -0.27,-0.03 -0.39,-0.09 -0.11,-0.06 -0.2,-0.15 -0.26,-0.26 -0.07,-0.11 -0.1,-0.23 -0.1,-0.37 0,-0.14 0.03,-0.27 0.1,-0.38 0.06,-0.11 0.15,-0.19 0.26,-0.25 0.12,-0.07 0.25,-0.1 0.39,-0.1 0.15,0 0.28,0.03 0.39,0.1 0.12,0.06 0.21,0.14 0.27,0.25 0.06,0.11 0.1,0.23 0.1,0.38 0,0.14 -0.04,0.26 -0.1,0.37 -0.06,0.11 -0.15,0.2 -0.27,0.26 -0.11,0.06 -0.24,0.09 -0.39,0.09zm0 -0.28c0.08,0 0.15,-0.02 0.22,-0.05 0.06,-0.04 0.11,-0.09 0.15,-0.16 0.03,-0.06 0.05,-0.14 0.05,-0.23 0,-0.09 -0.02,-0.17 -0.05,-0.24 -0.04,-0.07 -0.09,-0.12 -0.15,-0.15 -0.07,-0.04 -0.14,-0.06 -0.22,-0.06 -0.08,0 -0.15,0.02 -0.21,0.06 -0.06,0.03 -0.11,0.08 -0.15,0.15 -0.04,0.07 -0.06,0.15 -0.06,0.24 0,0.09 0.02,0.17 0.06,0.23 0.04,0.07 0.09,0.12 0.15,0.16 0.06,0.03 0.13,0.05 0.21,0.05z"/>
   <path id="_6" class="fil2" d="M20.2 6.26c-0.12,0 -0.22,-0.02 -0.32,-0.06 -0.09,-0.05 -0.16,-0.12 -0.21,-0.21 -0.05,-0.09 -0.08,-0.21 -0.08,-0.35l0 -0.81 0.33 0 0 0.76c0,0.13 0.03,0.23 0.09,0.29 0.06,0.06 0.14,0.09 0.24,0.09 0.08,0 0.15,-0.01 0.21,-0.05 0.05,-0.03 0.1,-0.08 0.13,-0.14 0.04,-0.06 0.05,-0.14 0.05,-0.23l0 -0.72 0.33 0 0 1.41 -0.31 0 0 -0.38 0.05 0.12c-0.04,0.09 -0.11,0.16 -0.21,0.21 -0.09,0.05 -0.19,0.07 -0.3,0.07z"/>
   <path id="_7" class="fil2" d="M21.79 6.26c-0.12,0 -0.23,-0.01 -0.34,-0.04 -0.11,-0.03 -0.19,-0.07 -0.26,-0.12l0.13 -0.25c0.07,0.04 0.14,0.08 0.23,0.1 0.09,0.03 0.18,0.04 0.26,0.04 0.11,0 0.18,-0.01 0.23,-0.04 0.05,-0.03 0.07,-0.07 0.07,-0.11 0,-0.04 -0.01,-0.07 -0.05,-0.09 -0.03,-0.02 -0.07,-0.04 -0.12,-0.05 -0.05,-0.01 -0.11,-0.02 -0.17,-0.03 -0.06,-0.01 -0.13,-0.02 -0.19,-0.03 -0.06,-0.02 -0.12,-0.04 -0.17,-0.07 -0.05,-0.03 -0.09,-0.07 -0.13,-0.12 -0.03,-0.05 -0.04,-0.11 -0.04,-0.19 0,-0.09 0.02,-0.17 0.07,-0.24 0.05,-0.06 0.13,-0.12 0.22,-0.15 0.09,-0.04 0.2,-0.06 0.33,-0.06 0.09,0 0.19,0.01 0.29,0.04 0.1,0.02 0.18,0.05 0.24,0.09l-0.13 0.25c-0.06,-0.04 -0.13,-0.07 -0.2,-0.09 -0.07,-0.01 -0.14,-0.02 -0.2,-0.02 -0.1,0 -0.18,0.02 -0.23,0.05 -0.05,0.03 -0.07,0.06 -0.07,0.11 0,0.04 0.02,0.07 0.05,0.1 0.03,0.02 0.07,0.03 0.12,0.05 0.05,0.01 0.11,0.02 0.17,0.03 0.07,0 0.13,0.02 0.19,0.03 0.06,0.02 0.12,0.04 0.17,0.07 0.05,0.02 0.09,0.06 0.13,0.11 0.03,0.05 0.04,0.12 0.04,0.2 0,0.08 -0.02,0.16 -0.07,0.23 -0.06,0.06 -0.13,0.11 -0.23,0.15 -0.09,0.04 -0.2,0.05 -0.34,0.05z"/>
   <path id="_8" class="fil2" d="M23.33 6.26c-0.15,0 -0.29,-0.03 -0.41,-0.09 -0.12,-0.06 -0.21,-0.15 -0.27,-0.26 -0.07,-0.11 -0.1,-0.23 -0.1,-0.37 0,-0.14 0.03,-0.27 0.1,-0.38 0.06,-0.11 0.15,-0.19 0.26,-0.25 0.11,-0.07 0.23,-0.1 0.37,-0.1 0.14,0 0.26,0.03 0.37,0.09 0.11,0.06 0.19,0.15 0.26,0.26 0.06,0.11 0.09,0.24 0.09,0.39 0,0.01 0,0.03 0,0.04 0,0.02 0,0.04 -0.01,0.05l-1.17 0 0 -0.22 1 0 -0.13 0.07c0,-0.08 -0.02,-0.15 -0.05,-0.21 -0.04,-0.06 -0.08,-0.11 -0.15,-0.15 -0.06,-0.03 -0.13,-0.05 -0.21,-0.05 -0.08,0 -0.15,0.02 -0.21,0.05 -0.06,0.04 -0.11,0.09 -0.14,0.15 -0.04,0.06 -0.05,0.14 -0.05,0.22l0 0.05c0,0.09 0.02,0.16 0.05,0.23 0.04,0.06 0.1,0.11 0.17,0.15 0.07,0.03 0.15,0.05 0.24,0.05 0.08,0 0.15,-0.01 0.22,-0.03 0.06,-0.03 0.12,-0.07 0.17,-0.12l0.17 0.2c-0.06,0.08 -0.14,0.13 -0.24,0.17 -0.09,0.04 -0.2,0.06 -0.33,0.06z"/>
   <path id="_9" class="fil2" d="M25.49 6.26c-0.12,0 -0.24,-0.01 -0.34,-0.04 -0.11,-0.03 -0.2,-0.07 -0.26,-0.12l0.12 -0.25c0.07,0.04 0.14,0.08 0.23,0.1 0.09,0.03 0.18,0.04 0.27,0.04 0.1,0 0.18,-0.01 0.22,-0.04 0.05,-0.03 0.07,-0.07 0.07,-0.11 0,-0.04 -0.01,-0.07 -0.04,-0.09 -0.04,-0.02 -0.08,-0.04 -0.13,-0.05 -0.05,-0.01 -0.11,-0.02 -0.17,-0.03 -0.06,-0.01 -0.12,-0.02 -0.19,-0.03 -0.06,-0.02 -0.12,-0.04 -0.17,-0.07 -0.05,-0.03 -0.09,-0.07 -0.12,-0.12 -0.03,-0.05 -0.05,-0.11 -0.05,-0.19 0,-0.09 0.02,-0.17 0.08,-0.24 0.05,-0.06 0.12,-0.12 0.21,-0.15 0.09,-0.04 0.2,-0.06 0.33,-0.06 0.1,0 0.19,0.01 0.29,0.04 0.1,0.02 0.18,0.05 0.24,0.09l-0.13 0.25c-0.06,-0.04 -0.13,-0.07 -0.2,-0.09 -0.07,-0.01 -0.13,-0.02 -0.2,-0.02 -0.1,0 -0.18,0.02 -0.22,0.05 -0.05,0.03 -0.08,0.06 -0.08,0.11 0,0.04 0.02,0.07 0.05,0.1 0.03,0.02 0.07,0.03 0.12,0.05 0.06,0.01 0.11,0.02 0.18,0.03 0.06,0 0.12,0.02 0.18,0.03 0.06,0.02 0.12,0.04 0.17,0.07 0.06,0.02 0.1,0.06 0.13,0.11 0.03,0.05 0.05,0.12 0.05,0.2 0,0.08 -0.03,0.16 -0.08,0.23 -0.05,0.06 -0.13,0.11 -0.22,0.15 -0.1,0.04 -0.21,0.05 -0.34,0.05z"/>
   <path id="_10" class="fil2" d="M27 6.26c-0.15,0 -0.28,-0.03 -0.39,-0.09 -0.11,-0.06 -0.2,-0.15 -0.27,-0.26 -0.06,-0.11 -0.09,-0.23 -0.09,-0.37 0,-0.14 0.03,-0.27 0.09,-0.38 0.07,-0.11 0.16,-0.19 0.27,-0.25 0.11,-0.07 0.24,-0.1 0.39,-0.1 0.14,0 0.27,0.03 0.39,0.1 0.11,0.06 0.2,0.14 0.27,0.25 0.06,0.11 0.09,0.23 0.09,0.38 0,0.14 -0.03,0.26 -0.09,0.37 -0.07,0.11 -0.16,0.2 -0.27,0.26 -0.12,0.06 -0.25,0.09 -0.39,0.09zm0 -0.28c0.08,0 0.15,-0.02 0.21,-0.05 0.07,-0.04 0.12,-0.09 0.15,-0.16 0.04,-0.06 0.06,-0.14 0.06,-0.23 0,-0.09 -0.02,-0.17 -0.06,-0.24 -0.03,-0.07 -0.08,-0.12 -0.15,-0.15 -0.06,-0.04 -0.13,-0.06 -0.21,-0.06 -0.08,0 -0.15,0.02 -0.22,0.06 -0.06,0.03 -0.11,0.08 -0.15,0.15 -0.03,0.07 -0.05,0.15 -0.05,0.24 0,0.09 0.02,0.17 0.05,0.23 0.04,0.07 0.09,0.12 0.15,0.16 0.07,0.03 0.14,0.05 0.22,0.05z"/>
   <polygon id="_11" class="fil2" points="28.02,6.24 28.02,4.28 28.35,4.28 28.35,6.24 "/>
   <path id="_12" class="fil2" d="M29.33 6.26c-0.12,0 -0.22,-0.02 -0.32,-0.06 -0.09,-0.05 -0.16,-0.12 -0.21,-0.21 -0.05,-0.09 -0.08,-0.21 -0.08,-0.35l0 -0.81 0.33 0 0 0.76c0,0.13 0.03,0.23 0.09,0.29 0.06,0.06 0.14,0.09 0.25,0.09 0.07,0 0.14,-0.01 0.2,-0.05 0.06,-0.03 0.1,-0.08 0.13,-0.14 0.04,-0.06 0.05,-0.14 0.05,-0.23l0 -0.72 0.33 0 0 1.41 -0.31 0 0 -0.38 0.05 0.12c-0.04,0.09 -0.11,0.16 -0.21,0.21 -0.09,0.05 -0.19,0.07 -0.3,0.07z"/>
   <path id="_13" class="fil2" d="M31.02 6.26c-0.16,0 -0.28,-0.04 -0.36,-0.12 -0.09,-0.08 -0.13,-0.2 -0.13,-0.35l0 -1.27 0.33 0 0 1.26c0,0.07 0.02,0.12 0.06,0.15 0.03,0.04 0.08,0.06 0.14,0.06 0.07,0 0.14,-0.02 0.18,-0.06l0.1 0.24c-0.04,0.03 -0.09,0.05 -0.15,0.07 -0.05,0.02 -0.11,0.02 -0.17,0.02zm-0.72 -1.17l0 -0.26 0.94 0 0 0.26 -0.94 0z"/>
   <path id="_14" class="fil2" d="M31.56 6.24l0 -1.41 0.33 0 0 1.41 -0.33 0zm0.17 -1.64c-0.07,0 -0.12,-0.02 -0.16,-0.06 -0.04,-0.04 -0.06,-0.09 -0.06,-0.14 0,-0.06 0.02,-0.11 0.06,-0.14 0.04,-0.04 0.09,-0.06 0.16,-0.06 0.06,0 0.11,0.02 0.15,0.05 0.04,0.04 0.06,0.09 0.06,0.14 0,0.06 -0.02,0.11 -0.06,0.15 -0.04,0.04 -0.09,0.06 -0.15,0.06z"/>
   <path id="_15" class="fil2" d="M32.91 6.26c-0.15,0 -0.27,-0.03 -0.39,-0.09 -0.11,-0.06 -0.2,-0.15 -0.26,-0.26 -0.07,-0.11 -0.1,-0.23 -0.1,-0.37 0,-0.14 0.03,-0.27 0.1,-0.38 0.06,-0.11 0.15,-0.19 0.26,-0.25 0.12,-0.07 0.24,-0.1 0.39,-0.1 0.15,0 0.28,0.03 0.39,0.1 0.11,0.06 0.2,0.14 0.27,0.25 0.06,0.11 0.09,0.23 0.09,0.38 0,0.14 -0.03,0.26 -0.09,0.37 -0.07,0.11 -0.16,0.2 -0.27,0.26 -0.11,0.06 -0.24,0.09 -0.39,0.09zm0 -0.28c0.08,0 0.15,-0.02 0.22,-0.05 0.06,-0.04 0.11,-0.09 0.15,-0.16 0.03,-0.06 0.05,-0.14 0.05,-0.23 0,-0.09 -0.02,-0.17 -0.05,-0.24 -0.04,-0.07 -0.09,-0.12 -0.15,-0.15 -0.07,-0.04 -0.14,-0.06 -0.22,-0.06 -0.08,0 -0.15,0.02 -0.21,0.06 -0.07,0.03 -0.12,0.08 -0.15,0.15 -0.04,0.07 -0.06,0.15 -0.06,0.24 0,0.09 0.02,0.17 0.06,0.23 0.03,0.07 0.08,0.12 0.15,0.16 0.06,0.03 0.13,0.05 0.21,0.05z"/>
   <path id="_16" class="fil2" d="M33.93 6.24l0 -1.41 0.32 0 0 0.38 -0.06 -0.12c0.05,-0.09 0.12,-0.15 0.22,-0.2 0.09,-0.05 0.2,-0.08 0.32,-0.08 0.12,0 0.22,0.03 0.31,0.07 0.09,0.04 0.16,0.11 0.21,0.2 0.05,0.09 0.08,0.21 0.08,0.35l0 0.81 -0.34 0 0 -0.76c0,-0.13 -0.03,-0.22 -0.08,-0.28 -0.06,-0.07 -0.15,-0.1 -0.25,-0.1 -0.08,0 -0.15,0.02 -0.21,0.05 -0.06,0.03 -0.11,0.08 -0.14,0.14 -0.03,0.07 -0.05,0.14 -0.05,0.24l0 0.71 -0.33 0z"/>
   <path id="_17" class="fil2" d="M36.13 6.26c-0.12,0 -0.23,-0.01 -0.34,-0.04 -0.11,-0.03 -0.19,-0.07 -0.26,-0.12l0.13 -0.25c0.06,0.04 0.14,0.08 0.23,0.1 0.09,0.03 0.18,0.04 0.26,0.04 0.11,0 0.18,-0.01 0.23,-0.04 0.05,-0.03 0.07,-0.07 0.07,-0.11 0,-0.04 -0.02,-0.07 -0.05,-0.09 -0.03,-0.02 -0.07,-0.04 -0.12,-0.05 -0.05,-0.01 -0.11,-0.02 -0.17,-0.03 -0.07,-0.01 -0.13,-0.02 -0.19,-0.03 -0.06,-0.02 -0.12,-0.04 -0.17,-0.07 -0.05,-0.03 -0.09,-0.07 -0.13,-0.12 -0.03,-0.05 -0.04,-0.11 -0.04,-0.19 0,-0.09 0.02,-0.17 0.07,-0.24 0.05,-0.06 0.13,-0.12 0.22,-0.15 0.09,-0.04 0.2,-0.06 0.33,-0.06 0.09,0 0.19,0.01 0.29,0.04 0.09,0.02 0.17,0.05 0.24,0.09l-0.13 0.25c-0.07,-0.04 -0.13,-0.07 -0.2,-0.09 -0.07,-0.01 -0.14,-0.02 -0.2,-0.02 -0.1,0 -0.18,0.02 -0.23,0.05 -0.05,0.03 -0.07,0.06 -0.07,0.11 0,0.04 0.02,0.07 0.05,0.1 0.03,0.02 0.07,0.03 0.12,0.05 0.05,0.01 0.11,0.02 0.17,0.03 0.07,0 0.13,0.02 0.19,0.03 0.06,0.02 0.12,0.04 0.17,0.07 0.05,0.02 0.09,0.06 0.13,0.11 0.03,0.05 0.04,0.12 0.04,0.2 0,0.08 -0.02,0.16 -0.07,0.23 -0.06,0.06 -0.13,0.11 -0.23,0.15 -0.09,0.04 -0.21,0.05 -0.34,0.05z"/>
   <g>
    <g>
     <path class="fil3" d="M8.86 3.57l0 -3.2 2.61 0 0 0.81 -1.53 0 0 2.39 -1.08 0zm1.01 -1.03l0 -0.81 1.41 0 0 0.81 -1.41 0z"/>
     <path id="_1_0" class="fil3" d="M13.37 3.64c-0.26,0 -0.5,-0.04 -0.72,-0.12 -0.22,-0.08 -0.41,-0.2 -0.58,-0.35 -0.16,-0.15 -0.28,-0.33 -0.37,-0.53 -0.09,-0.21 -0.14,-0.43 -0.14,-0.67 0,-0.25 0.05,-0.47 0.14,-0.67 0.09,-0.2 0.21,-0.38 0.37,-0.53 0.17,-0.15 0.36,-0.27 0.58,-0.35 0.22,-0.08 0.46,-0.13 0.72,-0.13 0.26,0 0.5,0.05 0.72,0.13 0.22,0.08 0.41,0.2 0.57,0.35 0.16,0.15 0.29,0.33 0.38,0.53 0.09,0.2 0.13,0.42 0.13,0.67 0,0.24 -0.04,0.46 -0.13,0.67 -0.09,0.2 -0.22,0.38 -0.38,0.53 -0.16,0.15 -0.35,0.27 -0.57,0.35 -0.22,0.08 -0.46,0.12 -0.72,0.12zm0 -0.87c0.1,0 0.19,-0.02 0.28,-0.06 0.09,-0.03 0.16,-0.09 0.23,-0.15 0.06,-0.07 0.11,-0.16 0.15,-0.26 0.04,-0.1 0.06,-0.21 0.06,-0.33 0,-0.13 -0.02,-0.24 -0.06,-0.34 -0.04,-0.1 -0.09,-0.18 -0.15,-0.25 -0.07,-0.07 -0.14,-0.12 -0.23,-0.16 -0.09,-0.03 -0.18,-0.05 -0.28,-0.05 -0.1,0 -0.2,0.02 -0.28,0.05 -0.09,0.04 -0.17,0.09 -0.23,0.16 -0.07,0.07 -0.12,0.15 -0.16,0.25 -0.03,0.1 -0.05,0.21 -0.05,0.34 0,0.12 0.02,0.23 0.05,0.33 0.04,0.1 0.09,0.19 0.16,0.26 0.06,0.06 0.14,0.12 0.23,0.15 0.08,0.04 0.18,0.06 0.28,0.06z"/>
     <path id="_2_1" class="fil3" d="M15.47 3.57l0 -3.2 1.5 0c0.49,0 0.86,0.11 1.12,0.32 0.25,0.22 0.38,0.51 0.38,0.88 0,0.25 -0.06,0.46 -0.18,0.64 -0.12,0.18 -0.29,0.32 -0.5,0.41 -0.22,0.1 -0.48,0.14 -0.78,0.14l-0.94 0 0.48 -0.44 0 1.25 -1.08 0zm1.92 0l-0.79 -1.17 1.14 0 0.8 1.17 -1.15 0zm-0.84 -1.13l-0.48 -0.49 0.87 0c0.15,0 0.26,-0.03 0.33,-0.1 0.08,-0.07 0.11,-0.16 0.11,-0.28 0,-0.11 -0.03,-0.2 -0.11,-0.27 -0.07,-0.07 -0.18,-0.1 -0.33,-0.1l-0.87 0 0.48 -0.49 0 1.73z"/>
     <path class="fil3" d="M20.23 3.64c-0.27,0 -0.53,-0.03 -0.78,-0.09 -0.25,-0.06 -0.45,-0.14 -0.62,-0.24l0.35 -0.78c0.15,0.08 0.32,0.15 0.51,0.21 0.19,0.05 0.37,0.08 0.55,0.08 0.1,0 0.18,-0.01 0.24,-0.02 0.06,-0.02 0.11,-0.04 0.13,-0.06 0.03,-0.03 0.04,-0.06 0.04,-0.1 0,-0.05 -0.03,-0.1 -0.09,-0.13 -0.07,-0.04 -0.15,-0.06 -0.26,-0.09 -0.1,-0.02 -0.22,-0.04 -0.34,-0.07 -0.13,-0.03 -0.25,-0.06 -0.38,-0.1 -0.12,-0.05 -0.24,-0.1 -0.35,-0.17 -0.1,-0.07 -0.19,-0.17 -0.25,-0.28 -0.06,-0.11 -0.1,-0.26 -0.1,-0.43 0,-0.19 0.06,-0.38 0.17,-0.54 0.11,-0.16 0.28,-0.29 0.5,-0.39 0.22,-0.1 0.5,-0.15 0.82,-0.15 0.22,0 0.43,0.03 0.64,0.07 0.22,0.05 0.4,0.12 0.57,0.21l-0.32 0.78c-0.16,-0.07 -0.31,-0.13 -0.46,-0.17 -0.15,-0.04 -0.29,-0.06 -0.43,-0.06 -0.11,0 -0.19,0.01 -0.25,0.02 -0.06,0.02 -0.11,0.05 -0.13,0.08 -0.03,0.03 -0.04,0.06 -0.04,0.1 0,0.05 0.03,0.1 0.1,0.13 0.06,0.03 0.14,0.06 0.25,0.08 0.1,0.02 0.22,0.04 0.35,0.07 0.12,0.02 0.25,0.06 0.37,0.1 0.13,0.04 0.24,0.1 0.35,0.17 0.1,0.07 0.19,0.16 0.25,0.27 0.07,0.11 0.1,0.25 0.1,0.42 0,0.2 -0.06,0.38 -0.17,0.54 -0.11,0.16 -0.27,0.29 -0.49,0.39 -0.22,0.1 -0.5,0.15 -0.83,0.15z"/>
     <polygon id="_1_2" class="fil3" points="22.59,3.57 22.59,1.2 21.65,1.2 21.65,0.37 24.61,0.37 24.61,1.2 23.67,1.2 23.67,3.57 "/>
     <path id="_2_3" class="fil3" d="M26.43 3.64c-0.26,0 -0.51,-0.04 -0.73,-0.12 -0.22,-0.08 -0.41,-0.2 -0.57,-0.35 -0.16,-0.15 -0.29,-0.33 -0.38,-0.53 -0.09,-0.21 -0.13,-0.43 -0.13,-0.67 0,-0.25 0.04,-0.47 0.13,-0.67 0.09,-0.2 0.22,-0.38 0.38,-0.53 0.16,-0.15 0.35,-0.27 0.57,-0.35 0.22,-0.08 0.46,-0.13 0.72,-0.13 0.27,0 0.51,0.05 0.73,0.13 0.22,0.08 0.41,0.2 0.57,0.35 0.16,0.15 0.28,0.33 0.37,0.53 0.09,0.2 0.14,0.42 0.14,0.67 0,0.24 -0.05,0.46 -0.14,0.67 -0.09,0.2 -0.21,0.38 -0.37,0.53 -0.16,0.15 -0.35,0.27 -0.57,0.35 -0.22,0.08 -0.46,0.12 -0.72,0.12zm-0.01 -0.87c0.1,0 0.2,-0.02 0.28,-0.06 0.09,-0.03 0.17,-0.09 0.23,-0.15 0.07,-0.07 0.12,-0.16 0.16,-0.26 0.03,-0.1 0.05,-0.21 0.05,-0.33 0,-0.13 -0.02,-0.24 -0.05,-0.34 -0.04,-0.1 -0.09,-0.18 -0.16,-0.25 -0.06,-0.07 -0.14,-0.12 -0.23,-0.16 -0.08,-0.03 -0.18,-0.05 -0.28,-0.05 -0.1,0 -0.19,0.02 -0.28,0.05 -0.08,0.04 -0.16,0.09 -0.23,0.16 -0.06,0.07 -0.11,0.15 -0.15,0.25 -0.04,0.1 -0.05,0.21 -0.05,0.34 0,0.12 0.01,0.23 0.05,0.33 0.04,0.1 0.09,0.19 0.15,0.26 0.07,0.06 0.15,0.12 0.23,0.15 0.09,0.04 0.18,0.06 0.28,0.06z"/>
     <path id="_3_4" class="fil3" d="M28.53 3.57l0 -3.2 1.49 0c0.49,0 0.87,0.11 1.12,0.32 0.26,0.22 0.39,0.51 0.39,0.88 0,0.25 -0.06,0.46 -0.18,0.64 -0.12,0.18 -0.29,0.32 -0.51,0.41 -0.22,0.1 -0.47,0.14 -0.77,0.14l-0.94 0 0.48 -0.44 0 1.25 -1.08 0zm1.91 0l-0.78 -1.17 1.14 0 0.79 1.17 -1.15 0zm-0.83 -1.13l-0.48 -0.49 0.87 0c0.15,0 0.26,-0.03 0.33,-0.1 0.07,-0.07 0.11,-0.16 0.11,-0.28 0,-0.11 -0.04,-0.2 -0.11,-0.27 -0.07,-0.07 -0.18,-0.1 -0.33,-0.1l-0.87 0 0.48 -0.49 0 1.73z"/>
     <path id="_4_5" class="fil3" d="M31.84 3.57l0 -3.2 2.6 0 0 0.81 -1.54 0 0 1.57 1.6 0 0 0.82 -2.66 0zm0.98 -1.24l0 -0.77 1.43 0 0 0.77 -1.43 0z"/>
    </g>
    <path class="fil4 str0" d="M35.94 2.32c0.03,-0.09 0.08,-0.17 0.15,-0.22 0.06,-0.04 0.14,-0.07 0.23,-0.07 0.13,0 0.23,0.06 0.31,0.17 0.07,0.11 0.11,0.27 0.11,0.48l0 0.86 -1.53 0 0 -0.82c0,-0.21 0.04,-0.36 0.11,-0.46 0.08,-0.1 0.17,-0.15 0.29,-0.15 0.08,0 0.14,0.02 0.2,0.06 0.07,0.04 0.09,0.06 0.13,0.15zm0.2 0.71l0.24 0 0 -0.31c0,-0.05 -0.01,-0.1 -0.03,-0.12 -0.02,-0.03 -0.05,-0.05 -0.09,-0.05 -0.04,0 -0.07,0.02 -0.09,0.05 -0.02,0.02 -0.03,0.07 -0.03,0.12l0 0.31zm-0.34 0l0 -0.24c0,-0.05 -0.01,-0.1 -0.03,-0.12 -0.02,-0.03 -0.05,-0.04 -0.09,-0.04 -0.04,0 -0.06,0.01 -0.08,0.04 -0.02,0.02 -0.03,0.07 -0.03,0.12l0 0.24 0.23 0zm0.52 -2.15l-0.39 0 0 -0.44 0.66 0c0.06,0.09 0.1,0.2 0.13,0.32 0.04,0.12 0.05,0.23 0.05,0.34 0,0.13 -0.02,0.24 -0.05,0.35 -0.04,0.1 -0.1,0.19 -0.17,0.27 -0.07,0.07 -0.16,0.13 -0.25,0.18 -0.1,0.04 -0.21,0.06 -0.33,0.06 -0.11,0 -0.22,-0.02 -0.32,-0.06 -0.1,-0.05 -0.18,-0.11 -0.25,-0.18 -0.08,-0.08 -0.13,-0.17 -0.17,-0.28 -0.04,-0.1 -0.06,-0.22 -0.06,-0.35 0,-0.15 0.03,-0.28 0.08,-0.4 0.05,-0.12 0.12,-0.22 0.22,-0.3l0.29 0.33c-0.06,0.05 -0.1,0.1 -0.13,0.16 -0.03,0.06 -0.04,0.12 -0.04,0.19 0,0.05 0.01,0.1 0.03,0.15 0.01,0.05 0.04,0.09 0.07,0.12 0.04,0.03 0.08,0.05 0.12,0.07 0.05,0.02 0.1,0.03 0.16,0.03 0.06,0 0.11,-0.01 0.16,-0.03 0.05,-0.02 0.09,-0.04 0.12,-0.07 0.03,-0.03 0.06,-0.07 0.08,-0.12 0.02,-0.04 0.03,-0.09 0.03,-0.15 0,-0.06 -0.02,-0.13 -0.04,-0.19z"/>
   </g>
  </g>
 </g>
</svg>
