<?xml version="1.0" encoding="UTF-8"?>
<!DOCTYPE svg PUBLIC "-//W3C//DTD SVG 1.1//EN" "http://www.w3.org/Graphics/SVG/1.1/DTD/svg11.dtd">
<!-- Creator: CorelDRAW 2021 (64-Bit) -->
<svg xmlns="http://www.w3.org/2000/svg" xml:space="preserve" width="216px" height="50px" version="1.1" style="shape-rendering:geometricPrecision; text-rendering:geometricPrecision; image-rendering:optimizeQuality; fill-rule:evenodd; clip-rule:evenodd"
viewBox="0 0 52.24 12.07"
 xmlns:xlink="http://www.w3.org/1999/xlink"
 xmlns:xodm="http://www.corel.com/coreldraw/odm/2003">
 <defs>
  <style type="text/css">
   <![CDATA[
    .fil0 {fill:#1A1A1A}
   ]]>
  </style>
 </defs>
 <g id="Layer_x0020_1">
  <metadata id="CorelCorpID_0Corel-Layer"/>
  <path class="fil0" d="M0 5.84l0 1.5c0.13,0.18 0.13,0.42 0.19,0.65 0.58,2.35 2.77,4.03 5.19,4.08 0.66,0.01 2.57,-0.1 2.96,-0.46 0.15,-0.42 0.14,-3.26 0.14,-3.94 -0.34,0.11 -0.7,0.49 -1.21,0.69 -1.52,0.62 -3.32,-0.3 -3.26,-2.02 0.04,-1.03 0.76,-1.79 1.69,-2 1.41,-0.32 2.36,0.79 2.78,0.93l-0.1 -4.04c-1.83,-0.77 -4.24,-0.49 -5.67,0.39 -2.49,1.53 -2.48,3.8 -2.71,4.22z"/>
  <path class="fil0" d="M28.97 7.06c-0.23,-1.34 1.82,-1.27 1.67,0.01l-1.67 -0.01zm5.21 2.31l-3.58 -0.02c-0.28,0.39 -0.46,0.87 -1.18,0.55 -0.39,-0.17 -0.52,-0.72 -0.49,-1.21l5.42 -0.03c0.3,-2.5 -1.59,-4.25 -3.74,-4.58 -5.94,-0.92 -7.54,6.78 -1.94,7.88 1.66,0.32 3.64,-0.08 4.78,-1.27 0.27,-0.27 0.71,-0.9 0.73,-1.32z"/>
  <path class="fil0" d="M12.65 7.05c-0.1,-1.38 1.85,-1.21 1.7,0.02l-1.7 -0.02zm5.24 2.32l-3.58 -0.02c-0.26,0.37 -0.41,0.82 -1.14,0.57 -0.41,-0.14 -0.59,-0.74 -0.49,-1.26l5.37 0c0.32,-2.53 -1.67,-4.3 -3.8,-4.59 -5.99,-0.78 -7.42,6.81 -1.85,7.88 1.19,0.24 2.54,0.08 3.53,-0.39 0.7,-0.33 1.92,-1.27 1.96,-2.19z"/>
  <path class="fil0" d="M46.34 7.15l0.43 0.01c0.21,-0.12 0.19,-0.09 0.38,-0.08 0.18,0.36 0.04,4 0.08,4.78l3.66 -0.01c0.04,-0.88 -0.06,-4.27 0.05,-4.75l1.21 0.03 -0.01 -2.83c-0.38,0.01 -0.81,0.09 -1.17,0.02 -0.18,-0.39 -0.06,-2.01 -0.07,-2.57l-3.68 0.02c-0.01,0.54 0.11,2.16 -0.07,2.54 -0.3,0.07 -0.49,-0.01 -0.83,0l0.02 2.84z"/>
  <path class="fil0" d="M35.16 8.94c-0.18,0.27 -0.89,2.01 -0.9,2.31 1.27,0.46 2.5,0.97 4.16,0.78 3.53,-0.4 4.27,-4.25 1,-4.97 -0.3,-0.06 -0.77,-0.1 -1.03,-0.2 -0.41,-0.16 -0.35,-0.65 0.12,-0.71 0.88,-0.1 1.38,0.5 1.89,0.59 0.16,-0.44 0.83,-1.74 0.82,-2.11 -0.93,-0.57 -2.91,-0.77 -4.1,-0.49 -1.28,0.29 -2.38,1.07 -2.42,2.47 -0.05,1.64 1.15,2.02 2.57,2.26 1,0.17 0.65,1.08 -0.41,0.82 -0.97,-0.23 -1.28,-0.64 -1.7,-0.75z"/>
  <path class="fil0" d="M22.24 5.09l0.03 -0.9 -3.7 -0.01 -0.03 7.71 3.72 0.02c0.29,-1.58 -0.65,-4.11 1.06,-4.48 0.88,-0.19 1,0.18 1.57,0.29l0.01 -3.7c-2.16,-0.11 -2.01,0.83 -2.66,1.07z"/>
  <path class="fil0" d="M41.98 4.5l0 7.08c0,0.52 0.49,0.33 1.84,0.33 1.69,0 1.9,0.2 1.9,-0.39l0 -7.02c0,-0.49 -0.3,-0.32 -1.63,-0.32l-1.85 -0.01c-0.29,0.03 -0.26,0.03 -0.26,0.33z"/>
  <path class="fil0" d="M44.41 0l-1.12 0 -0.29 0.14c-1.97,0.82 -1.46,3.47 0.88,3.46 2.38,-0.01 2.73,-2.71 0.88,-3.45 -0.02,-0.01 -0.14,-0.05 -0.14,-0.05l-0.16 -0.07c-0.01,-0.01 -0.03,-0.02 -0.05,-0.03z"/>
  <path class="fil0" d="M46.34 7.15l-0.02 -2.84c0.34,-0.01 0.53,0.07 0.83,0 0.18,-0.38 0.06,-2 0.07,-2.54l3.68 -0.02c0.01,0.56 -0.11,2.18 0.07,2.57 0.36,0.07 0.79,-0.01 1.17,-0.02l0.01 2.83 -1.21 -0.03c-0.11,0.48 -0.01,3.87 -0.05,4.75l-3.66 0.01c-0.04,-0.78 0.1,-4.42 -0.08,-4.78 -0.19,-0.01 -0.17,-0.04 -0.38,0.08l0.35 0.01c0.06,0.98 -0.07,4.17 0.05,4.74 0.4,0.07 3.42,0.08 3.78,0 0.15,-0.7 -0.05,-3.64 0.06,-4.72 0.37,-0.03 0.86,0.09 1.21,-0.01l0.02 -2.92c-0.38,-0.14 -0.85,0.02 -1.25,-0.03l0 -2.52c-0.4,-0.09 -3.43,-0.09 -3.83,-0.01l-0.03 2.52c-0.36,0.06 -0.59,-0.07 -0.89,0.04l-0.02 2.62c0.01,0.43 -0.01,0.16 0.12,0.27z"/>
 </g>
</svg>
