<svg xmlns="http://www.w3.org/2000/svg" width="724" height="184"><path d="M44.102 1333.45H1331.95V45.605H44.102z" style="fill:none;stroke:#f47216;stroke-width:79.9994;stroke-linecap:butt;stroke-linejoin:miter;stroke-miterlimit:2.6131;stroke-dasharray:none;stroke-opacity:1" transform="matrix(.13333 0 0 -.13333 0 184)"></path><path d="M44.102 1333.45H1331.95V45.605H44.102V1333.45" style="fill:#4f4c4c;fill-opacity:1;fill-rule:evenodd;stroke:none" transform="matrix(.13333 0 0 -.13333 0 184)"></path><path d="m195.363 1139.55 365.168.36 129.614-546.617 139.796 544.377h392.519l-30.02-894.791-247.389-.559 24.015 655.039-177.668-654.48H587.023L435.438 887l-23-644.121-245.223.516z" style="fill:none;stroke:#f47216;stroke-width:79.9994;stroke-linecap:butt;stroke-linejoin:miter;stroke-miterlimit:2.6131;stroke-dasharray:none;stroke-opacity:1" transform="matrix(.13333 0 0 -.13333 0 184)"></path><path d="m195.363 1139.55 365.168.36 129.614-546.617 139.796 544.377h392.519l-30.02-894.791-247.389-.559 24.015 655.039-177.668-654.48H587.023L435.438 887l-23-644.121-245.223.516 28.148 896.155" style="fill:#fff;fill-opacity:1;fill-rule:evenodd;stroke:none" transform="matrix(.13333 0 0 -.13333 0 184)"></path><path d="m1600.21 1225.83 267.9.38 102.54-436.331 112.05 436.331h291.71l-17.58-717.714-182.14.317 18.7 547.077-141.59-546.882h-163.81l-121.6 545.202-18.33-545.202h-181.51zm936.41.38h592.84l-6.07-153.13h-383.2l-3.91-114.049h344.82l-5-144.609-347.33-1.668-4.69-140.016 384.76-1.254-5-162.476h-589.65zm725.62 1.15 343.36-1.15c142.13-.48 240.13-70.78 240.13-220.08 0-161.388-114.71-230.946-264.68-230.946-80.3 0-63.84-8.715-73.64 25.886-23.4 86.082-18.5 69.243-31.63 122.688 53.99-3.645 154.2 9.98 154.2 75.855 0 88.257-93.02 81.057-155.87 79.977-2.97-85.297-4.19-173.145-7.06-255.055-3.7-105.211-8.81-211.039-12.78-316.637l-217.04 1.11zm1394.44-.29-22.11-716.75-207.44.969 12.56 391.473-268.67-393.754h-208.9l23.38 719.442 199.05-.22-13.53-398.777 270.18 396.757zm95.34-.02 673.17 1.04-5.63-179.05h-217.09l-19.33-540.032-222.97-.055 17.66 540.087h-231.89l6.08 178.01" style="fill:#f47216;fill-opacity:1;fill-rule:evenodd;stroke:none" transform="matrix(.13333 0 0 -.13333 0 184)"></path><path d="m1600.21 1225.83 267.9.38 102.54-436.331 112.05 436.331h291.71l-17.58-717.714-182.14.317 18.7 547.077-141.59-546.882h-163.81l-121.6 545.202-18.33-545.202h-181.51zm936.41.38h592.84l-6.07-153.13h-383.2l-3.91-114.049h344.82l-5-144.609-347.33-1.668-4.69-140.016 384.76-1.254-5-162.476h-589.65zm725.62 1.15 343.36-1.15c142.13-.48 240.13-70.78 240.13-220.08 0-161.388-114.71-230.946-264.68-230.946-80.3 0-63.84-8.715-73.64 25.886-23.4 86.082-18.5 69.243-31.63 122.688 53.99-3.645 154.2 9.98 154.2 75.855 0 88.257-93.02 81.057-155.87 79.977-2.97-85.297-4.19-173.145-7.06-255.055-3.7-105.211-8.81-211.039-12.78-316.637l-217.04 1.11zm1394.44-.29-22.11-716.75-207.44.969 12.56 391.473-268.67-393.754h-208.9l23.38 719.442 199.05-.22-13.53-398.777 270.18 396.757zm95.34-.02 673.17 1.04-5.63-179.05h-217.09l-19.33-540.032-222.97-.055 17.66 540.087h-231.89z" style="fill:none;stroke:#f47216;stroke-width:2.16;stroke-linecap:butt;stroke-linejoin:miter;stroke-miterlimit:2.6131;stroke-dasharray:none;stroke-opacity:1" transform="matrix(.13333 0 0 -.13333 0 184)"></path><path d="M1573.54 245.039h49.16l49.05-149.402 54.45 149.402h45.51V58.375h-31.6V208.68l-55.16-150.305h-28.31l-52.16 157.504V58.375h-30.94zm474.11-126.543 32.68-4.019c-5.16-19.141-14.69-33.958-28.6-44.52-13.97-10.5-31.78-15.781-53.43-15.781-27.28 0-48.92 8.402-64.87 25.199-16.02 16.8-23.99 40.383-23.99 70.742 0 31.438 8.1 55.801 24.22 73.141 16.2 17.34 37.12 26.039 62.9 26.039 24.95 0 45.33-8.52 61.1-25.5 15.84-16.981 23.75-40.918 23.75-71.699 0-1.922-.06-4.743-.18-8.461h-139.11c1.14-20.52 6.95-36.242 17.39-47.102 10.43-10.918 23.38-16.379 38.97-16.379 11.57 0 21.47 3.059 29.68 9.18 8.22 6.062 14.7 15.781 19.49 29.16zm-103.79 51.18h104.15c-1.38 15.66-5.4 27.48-11.93 35.281-10.08 12.18-23.15 18.301-39.16 18.301-14.51 0-26.74-4.86-36.63-14.578-9.9-9.723-15.35-22.742-16.43-39.004zm412.83 152.519 27.94-.297c-1.32-12.543-4.08-21.3-8.4-26.222-4.25-4.918-9.77-8.098-16.48-9.481-6.72-1.437-19.91-2.097-39.64-2.097-26.08 0-43.89-2.52-53.36-7.563-9.48-5.039-16.31-13.137-20.45-24.18-4.2-11.097-6.48-25.316-6.95-42.777 7.97 11.82 17.27 20.699 27.94 26.578 10.61 5.942 22.66 8.883 35.98 8.883 24.46 0 44.73-8.402 60.79-25.199 16.01-16.801 24.05-39.602 24.05-68.281 0-21.844-4.02-39.661-12.11-53.641-8.1-13.922-17.63-24.723-28.72-32.34-11.04-7.621-26.15-11.402-45.21-11.402-22.13 0-39.4 5.039-51.69 15.183-12.29 10.137-21.71 23.098-28.24 38.938-6.6 15.84-9.84 43.379-9.84 82.621 0 49.316 8.34 82.559 25.01 99.66 16.67 17.102 42.39 25.676 77.05 25.676 21.52 0 33.76.363 36.69 1.023 2.94.719 4.8 2.399 5.64 4.918zm-1.62-169.8c0 19.5-4.55 35.402-13.79 47.82-9.17 12.422-22.12 18.664-38.85 18.664-17.45 0-30.95-6.602-40.42-19.684-9.47-13.136-14.27-30.66-14.27-52.558 0-21.719 5.28-38.282 15.77-49.739 10.44-11.523 23.39-17.222 38.74-17.222 15.64 0 28.42 6.601 38.19 19.922 9.77 13.32 14.63 30.898 14.63 52.797zm298.67-33.899 32.68-4.019c-5.16-19.141-14.69-33.958-28.61-44.52-13.97-10.5-31.77-15.781-53.42-15.781-27.28 0-48.93 8.402-64.88 25.199-16.01 16.8-23.98 40.383-23.98 70.742 0 31.438 8.09 55.801 24.22 73.141 16.19 17.34 37.12 26.039 62.9 26.039 24.94 0 45.33-8.52 61.1-25.5 15.83-16.981 23.75-40.918 23.75-71.699 0-1.922-.06-4.743-.18-8.461h-139.11c1.13-20.52 6.95-36.242 17.39-47.102 10.43-10.918 23.38-16.379 38.97-16.379 11.57 0 21.47 3.059 29.68 9.18 8.21 6.062 14.69 15.781 19.49 29.16zm-103.8 51.18h104.16c-1.38 15.66-5.4 27.48-11.94 35.281-10.07 12.18-23.14 18.301-39.15 18.301-14.51 0-26.74-4.86-36.64-14.578-9.89-9.723-15.35-22.742-16.43-39.004zm291.6 75.363h146.9V58.375h-31.48v160.504h-83.76v-93c0-21.664-.72-36-2.11-42.902-1.43-6.899-5.27-12.961-11.63-18.122-6.29-5.156-15.46-7.738-27.4-7.738-7.38 0-15.89.48-25.48 1.442v26.34h13.91c6.54 0 11.21.718 14.03 2.038 2.82 1.38 4.68 3.481 5.64 6.419.96 2.94 1.38 12.48 1.38 28.683zm422.12-126.543 32.68-4.019c-5.16-19.141-14.69-33.958-28.6-44.52-13.97-10.5-31.78-15.781-53.42-15.781-27.29 0-48.93 8.402-64.88 25.199-16.01 16.8-23.99 40.383-23.99 70.742 0 31.438 8.1 55.801 24.23 73.141 16.19 17.34 37.11 26.039 62.89 26.039 24.95 0 45.34-8.52 61.11-25.5 15.82-16.981 23.74-40.918 23.74-71.699 0-1.922-.06-4.743-.18-8.461h-139.11c1.14-20.52 6.96-36.242 17.39-47.102 10.43-10.918 23.38-16.379 38.98-16.379 11.57 0 21.46 3.059 29.68 9.18 8.21 6.062 14.68 15.781 19.48 29.16zm-103.79 51.18h104.15c-1.38 15.66-5.39 27.48-11.93 35.281-10.07 12.18-23.15 18.301-39.15 18.301-14.51 0-26.74-4.86-36.64-14.578-9.89-9.723-15.35-22.742-16.43-39.004zm276.3 75.363h31.66v-77.703h87.66v77.703h31.6V58.375h-31.6v82.801h-87.66V58.375h-31.66zm486.58-93.305c0 34.563 9.6 60.184 28.84 76.805 16.02 13.797 35.56 20.758 58.65 20.758 25.66 0 46.65-8.399 62.9-25.262 16.31-16.797 24.4-40.019 24.4-69.656 0-24.063-3.59-42.965-10.79-56.703-7.2-13.797-17.69-24.48-31.42-32.098-13.79-7.621-28.78-11.402-45.09-11.402-26.08 0-47.19 8.343-63.32 25.14-16.13 16.743-24.17 40.86-24.17 72.418zm32.5 0c0-23.937 5.22-41.816 15.65-53.699 10.44-11.937 23.57-17.879 39.34-17.879 15.71 0 28.78 6 39.21 17.942 10.37 11.941 15.59 30.179 15.59 54.66 0 23.097-5.22 40.617-15.71 52.5-10.49 11.879-23.5 17.82-39.09 17.82-15.77 0-28.9-5.941-39.34-17.762-10.43-11.82-15.65-29.699-15.65-53.582zm416.01 170.461 27.95-.297c-1.32-12.543-4.08-21.3-8.4-26.222-4.26-4.918-9.77-8.098-16.49-9.481-6.71-1.437-19.91-2.097-39.63-2.097-26.08 0-43.89-2.52-53.37-7.563-9.47-5.039-16.3-13.137-20.44-24.18-4.2-11.097-6.48-25.316-6.96-42.777 7.97 11.82 17.27 20.699 27.94 26.578 10.61 5.942 22.66 8.883 35.98 8.883 24.46 0 44.73-8.402 60.8-25.199 16.01-16.801 24.04-39.602 24.04-68.281 0-21.844-4.02-39.661-12.11-53.641-8.09-13.922-17.62-24.723-28.72-32.34-11.03-7.621-26.15-11.402-45.21-11.402-22.12 0-39.39 5.039-51.69 15.183-12.29 10.137-21.7 23.098-28.24 38.938-6.59 15.84-9.83 43.379-9.83 82.621 0 49.316 8.33 82.559 25 99.66 16.67 17.102 42.39 25.676 77.05 25.676 21.53 0 33.76.363 36.7 1.023 2.93.719 4.79 2.399 5.63 4.918zm-1.62-169.8c0 19.5-4.55 35.402-13.78 47.82-9.18 12.422-22.13 18.664-38.86 18.664-17.45 0-30.94-6.602-40.41-19.684-9.48-13.136-14.28-30.66-14.28-52.558 0-21.719 5.28-38.282 15.78-49.739 10.43-11.523 23.38-17.222 38.73-17.222 15.65 0 28.42 6.601 38.2 19.922 9.77 13.32 14.62 30.898 14.62 52.797zm170.83 92.644h31.6v-80.641c10.07 0 17.15 1.918 21.17 5.758 4.01 3.899 9.95 15.121 17.81 33.782 6.24 14.757 11.27 24.476 15.11 29.16 3.9 4.679 8.33 7.859 13.37 9.48 5.04 1.676 13.13 2.461 24.22 2.461h6.36v-26.16l-8.81.176c-8.28 0-13.61-1.258-15.96-3.719-2.45-2.578-6.23-10.258-11.27-23.039-4.8-12.18-9.17-20.578-13.19-25.258-3.95-4.742-10.13-9-18.41-12.844 13.56-3.66 26.93-16.316 40.06-37.976l34.6-57.844h-34.78l-33.76 57.844c-6.89 11.578-12.95 19.258-18.05 22.918-5.16 3.722-11.33 5.519-18.47 5.519V58.375h-31.6zm245.73-93.305c0 34.563 9.59 60.184 28.84 76.805 16.01 13.797 35.55 20.758 58.64 20.758 25.66 0 46.65-8.399 62.89-25.262 16.32-16.797 24.41-40.019 24.41-69.656 0-24.063-3.59-42.965-10.79-56.703-7.2-13.797-17.69-24.48-31.42-32.098-13.79-7.621-28.78-11.402-45.09-11.402-26.08 0-47.19 8.343-63.32 25.14-16.13 16.743-24.16 40.86-24.16 72.418zm32.5 0c0-23.937 5.21-41.816 15.64-53.699 10.44-11.937 23.57-17.879 39.34-17.879 15.71 0 28.78 6 39.21 17.942 10.38 11.941 15.59 30.179 15.59 54.66 0 23.097-5.21 40.617-15.71 52.5-10.49 11.879-23.5 17.82-39.09 17.82-15.77 0-28.9-5.941-39.34-17.762-10.43-11.82-15.64-29.699-15.64-53.582zm279.47 93.305h72.92c17.92 0 31.23-1.504 39.99-4.441 8.69-3 16.19-8.461 22.49-16.442 6.23-7.98 9.41-17.519 9.41-28.679 0-8.879-1.86-16.68-5.58-23.282-3.66-6.597-9.23-12.179-16.61-16.617 8.82-2.941 16.07-8.402 21.89-16.441s8.69-17.52 8.69-28.559c-1.14-17.7-7.49-30.844-18.94-39.36-11.52-8.581-28.19-12.843-50.07-12.843h-84.19zm31.66-78.543h33.7c13.49 0 22.72.66 27.76 2.102 5.04 1.379 9.54 4.257 13.55 8.519 3.96 4.262 5.94 9.418 5.94 15.36 0 9.839-3.48 16.738-10.43 20.582-6.96 3.898-18.89 5.82-35.74 5.82h-34.78zm0-82.082h41.61c17.93 0 30.22 2.043 36.88 6.242 6.72 4.14 10.2 11.34 10.56 21.481 0 6-1.92 11.519-5.82 16.621-3.84 5.101-8.88 8.34-15.05 9.656-6.24 1.383-16.19 2.043-29.92 2.043h-38.26V84.414" style="fill:#4f4c4c;fill-opacity:1;fill-rule:evenodd;stroke:none" transform="matrix(.13333 0 0 -.13333 0 184)"></path><path d="M5284.09 552.301c0-5.559-2.47-6.481-6.48-6.481h-2.78c-.62 0-.93-.308-.93-1.238v-2.777c0-.926.31-1.235 1.55-1.235 1.23 0 10.49.309 15.43.309 4.94 0 15.13-.309 16.67-.309.93 0 .93.309.93.926v3.399c0 .617 0 .925-.93.925h-4.94c-3.08 0-3.7 2.16-4.01 4.629-.31 1.852-.31 13.582-.31 20.375v5.867h4.94c3.4 0 6.48-2.472 8.03-4.632 2.16-2.161 6.79-9.258 8.03-11.731 1.23-2.469 7.71-12.039 8.64-13.277.93-1.539 4.02-5.555 5.25-6.481 4.32 0 8.95.309 12.66.309 3.7 0 8.64-.309 9.57-.309.92 0 1.23.309 1.23.926v3.399c0 .617-.31.925-1.23.925-3.4 0-6.49.305-9.27 2.16-2.78 1.543-8.64 8.95-10.49 12.348-1.54 3.086-8.65 12.969-10.19 14.82-.92 1.235-2.47 3.086-4.94 3.704v.617c8.95 1.543 21.3 8.027 21.3 23.152 0 4.324-1.54 9.57-6.17 13.277-4.33 4.012-12.66 7.102-24.08 7.102-2.16 0-18.84-.621-21-.621s-14.19.621-15.12.621c-.62 0-.93-.309-.93-.926v-3.703c0-.621.31-.93.93-.93h1.85c4.94 0 6.49-1.851 6.79-5.558v-18.52zm14.2 64.523c1.85.309 4.63.309 6.18.309 7.1 0 10.8-1.235 16.05-4.633 3.4-2.16 6.18-7.406 6.18-12.035 0-4.324-3.09-18.527-20.38-18.527-4.02 0-6.79 0-8.03.308zm12.04 34.578c-42.29 0-73.47-30.562-73.47-71.004 0-39.519 27.16-71.007 73.47-70.699 45.69 0 73.48 31.18 73.48 70.699 0 41.981-29.64 71.004-73.48 71.004zm0-131.824c-25.01.309-60.2 14.508-60.2 60.82 0 37.665 26.86 61.125 60.2 61.125 24.39 0 60.21-16.054 60.21-61.125 0-27.48-16.37-60.82-60.21-60.82" style="fill:#f47216;fill-opacity:1;fill-rule:evenodd;stroke:none" transform="matrix(.13333 0 0 -.13333 0 184)"></path><path d="M5284.09 552.301c0-5.559-2.47-6.481-6.48-6.481h-2.78c-.62 0-.93-.308-.93-1.238v-2.777c0-.926.31-1.235 1.55-1.235 1.23 0 10.49.309 15.43.309 4.94 0 15.13-.309 16.67-.309.93 0 .93.309.93.926v3.399c0 .617 0 .925-.93.925h-4.94c-3.08 0-3.7 2.16-4.01 4.629-.31 1.852-.31 13.582-.31 20.375v5.867h4.94c3.4 0 6.48-2.472 8.03-4.632 2.16-2.161 6.79-9.258 8.03-11.731 1.23-2.469 7.71-12.039 8.64-13.277.93-1.539 4.02-5.555 5.25-6.481 4.32 0 8.95.309 12.66.309 3.7 0 8.64-.309 9.57-.309.92 0 1.23.309 1.23.926v3.399c0 .617-.31.925-1.23.925-3.4 0-6.49.305-9.27 2.16-2.78 1.543-8.64 8.95-10.49 12.348-1.54 3.086-8.65 12.969-10.19 14.82-.92 1.235-2.47 3.086-4.94 3.704v.617c8.95 1.543 21.3 8.027 21.3 23.152 0 4.324-1.54 9.57-6.17 13.277-4.33 4.012-12.66 7.102-24.08 7.102-2.16 0-18.84-.621-21-.621s-14.19.621-15.12.621c-.62 0-.93-.309-.93-.926v-3.703c0-.621.31-.93.93-.93h1.85c4.94 0 6.49-1.851 6.79-5.558v-18.52zm14.2 64.523c1.85.309 4.63.309 6.18.309 7.1 0 10.8-1.235 16.05-4.633 3.4-2.16 6.18-7.406 6.18-12.035 0-4.324-3.09-18.527-20.38-18.527-4.02 0-6.79 0-8.03.308zm12.04 34.578c-42.29 0-73.47-30.562-73.47-71.004 0-39.519 27.16-71.007 73.47-70.699 45.69 0 73.48 31.18 73.48 70.699 0 41.981-29.64 71.004-73.48 71.004zm0-131.824c-25.01.309-60.2 14.508-60.2 60.82 0 37.665 26.86 61.125 60.2 61.125 24.39 0 60.21-16.054 60.21-61.125 0-27.48-16.37-60.82-60.21-60.82z" style="fill:none;stroke:#f47216;stroke-width:2.16;stroke-linecap:butt;stroke-linejoin:miter;stroke-miterlimit:2.6131;stroke-dasharray:none;stroke-opacity:1" transform="matrix(.13333 0 0 -.13333 0 184)"></path><path d="M107.293 1232.42c0-3.99-1.773-4.65-4.648-4.65h-1.997c-.441 0-.664-.22-.664-.89v-1.99c0-.67.223-.89 1.11-.89.883 0 7.527.22 11.07.22s10.852-.22 11.961-.22c.664 0 .664.22.664.67v2.43c0 .45 0 .67-.664.67h-3.543c-2.215 0-2.66 1.55-2.883 3.32-.219 1.33-.219 9.74-.219 14.61v4.21h3.543c2.434 0 4.653-1.77 5.758-3.32 1.551-1.55 4.871-6.64 5.758-8.41.887-1.77 5.539-8.64 6.199-9.53.668-1.1 2.883-3.98 3.766-4.65 3.101 0 6.422.22 9.082.22 2.656 0 6.199-.22 6.863-.22.664 0 .887.22.887.67v2.43c0 .45-.223.67-.887.67-2.433 0-4.648.22-6.64 1.55-1.993 1.1-6.204 6.42-7.532 8.86-1.105 2.21-6.199 9.3-7.308 10.62-.664.89-1.774 2.22-3.543 2.66v.45c6.422 1.1 15.281 5.75 15.281 16.61 0 3.1-1.109 6.86-4.43 9.52-3.101 2.88-9.082 5.09-17.273 5.09-1.551 0-13.508-.44-15.059-.44-1.55 0-10.187.44-10.851.44-.446 0-.668-.22-.668-.66v-2.66c0-.44.222-.67.668-.67h1.324c3.547 0 4.652-1.32 4.875-3.98v-13.29zm10.187 46.28c1.329.23 3.321.23 4.43.23 5.094 0 7.75-.89 11.516-3.33 2.437-1.55 4.429-5.31 4.429-8.64 0-3.1-2.218-13.28-14.617-13.28-2.879 0-4.871 0-5.758.22zm8.637 24.81c-30.34 0-52.707-21.93-52.707-50.94 0-28.35 19.488-50.94 52.707-50.71 32.778 0 52.707 22.36 52.707 50.71 0 30.12-21.261 50.94-52.707 50.94zm0-94.57c-17.937.22-43.187 10.41-43.187 43.63 0 27.02 19.269 43.85 43.187 43.85 17.496 0 43.184-11.52 43.184-43.85 0-19.71-11.738-43.63-43.184-43.63" style="fill:#f47216;fill-opacity:1;fill-rule:evenodd;stroke:none" transform="matrix(.13333 0 0 -.13333 0 184)"></path><path d="M107.293 1232.42c0-3.99-1.773-4.65-4.648-4.65h-1.997c-.441 0-.664-.22-.664-.89v-1.99c0-.67.223-.89 1.11-.89.883 0 7.527.22 11.07.22s10.852-.22 11.961-.22c.664 0 .664.22.664.67v2.43c0 .45 0 .67-.664.67h-3.543c-2.215 0-2.66 1.55-2.883 3.32-.219 1.33-.219 9.74-.219 14.61v4.21h3.543c2.434 0 4.653-1.77 5.758-3.32 1.551-1.55 4.871-6.64 5.758-8.41.887-1.77 5.539-8.64 6.199-9.53.668-1.1 2.883-3.98 3.766-4.65 3.101 0 6.422.22 9.082.22 2.656 0 6.199-.22 6.863-.22.664 0 .887.22.887.67v2.43c0 .45-.223.67-.887.67-2.433 0-4.648.22-6.64 1.55-1.993 1.1-6.204 6.42-7.532 8.86-1.105 2.21-6.199 9.3-7.308 10.62-.664.89-1.774 2.22-3.543 2.66v.45c6.422 1.1 15.281 5.75 15.281 16.61 0 3.1-1.109 6.86-4.43 9.52-3.101 2.88-9.082 5.09-17.273 5.09-1.551 0-13.508-.44-15.059-.44-1.55 0-10.187.44-10.851.44-.446 0-.668-.22-.668-.66v-2.66c0-.44.222-.67.668-.67h1.324c3.547 0 4.652-1.32 4.875-3.98v-13.29zm10.187 46.28c1.329.23 3.321.23 4.43.23 5.094 0 7.75-.89 11.516-3.33 2.437-1.55 4.429-5.31 4.429-8.64 0-3.1-2.218-13.28-14.617-13.28-2.879 0-4.871 0-5.758.22zm8.637 24.81c-30.34 0-52.707-21.93-52.707-50.94 0-28.35 19.488-50.94 52.707-50.71 32.778 0 52.707 22.36 52.707 50.71 0 30.12-21.261 50.94-52.707 50.94zm0-94.57c-17.937.22-43.187 10.41-43.187 43.63 0 27.02 19.269 43.85 43.187 43.85 17.496 0 43.184-11.52 43.184-43.85 0-19.71-11.738-43.63-43.184-43.63z" style="fill:none;stroke:#f47216;stroke-width:2.16;stroke-linecap:butt;stroke-linejoin:miter;stroke-miterlimit:2.6131;stroke-dasharray:none;stroke-opacity:1" transform="matrix(.13333 0 0 -.13333 0 184)"></path></svg>